<mxfile host="app.diagrams.net" modified="2022-11-27T15:13:33.146Z" agent="5.0 (Macintosh; Intel Mac OS X 10_15_7) AppleWebKit/537.36 (KHTML, like Gecko) Chrome/107.0.0.0 Safari/537.36" etag="Mduc_-QBYhKMXRutXS3r" version="20.6.0" type="github" pages="3">
  <diagram id="NxpsjfCZlnSfU4HGU4hm" name="Host模式">
    <mxGraphModel dx="1390" dy="980" grid="1" gridSize="10" guides="1" tooltips="1" connect="1" arrows="1" fold="1" page="1" pageScale="1" pageWidth="827" pageHeight="1169" math="0" shadow="0">
      <root>
        <mxCell id="0" />
        <mxCell id="1" parent="0" />
        <mxCell id="xOD4DcTMaBVLioNBanpC-1" value="" style="rounded=0;whiteSpace=wrap;html=1;fillColor=#3A8EBD;strokeColor=#6c8ebf;" parent="1" vertex="1">
          <mxGeometry x="110" y="210" width="590" height="340" as="geometry" />
        </mxCell>
        <mxCell id="xOD4DcTMaBVLioNBanpC-2" value="&lt;font color=&quot;#ffffff&quot;&gt;&amp;nbsp;container A&lt;br&gt;&lt;br&gt;192.168.10.1:3306&lt;/font&gt;" style="rounded=0;whiteSpace=wrap;html=1;fillColor=#3B5C97;strokeColor=#3B5C97;" parent="1" vertex="1">
          <mxGeometry x="180" y="290" width="170" height="80" as="geometry" />
        </mxCell>
        <mxCell id="xOD4DcTMaBVLioNBanpC-3" value="&lt;font color=&quot;#ffffff&quot;&gt;&amp;nbsp;container B&lt;br&gt;&lt;br&gt;192.168.10.1:6379&lt;/font&gt;" style="rounded=0;whiteSpace=wrap;html=1;fillColor=#3B5C97;strokeColor=#3B5C97;" parent="1" vertex="1">
          <mxGeometry x="460" y="290" width="170" height="80" as="geometry" />
        </mxCell>
        <mxCell id="xOD4DcTMaBVLioNBanpC-4" value="&lt;font color=&quot;#ffffff&quot;&gt;eth0&lt;br&gt;192.168.10.1/24&lt;/font&gt;" style="rounded=0;whiteSpace=wrap;html=1;fillColor=#3B5C97;strokeColor=#3B5C97;" parent="1" vertex="1">
          <mxGeometry x="318.75" y="470" width="172.5" height="80" as="geometry" />
        </mxCell>
        <mxCell id="xOD4DcTMaBVLioNBanpC-6" value="" style="endArrow=none;html=1;rounded=0;exitX=0.5;exitY=1;exitDx=0;exitDy=0;entryX=0.5;entryY=0;entryDx=0;entryDy=0;strokeWidth=2;strokeColor=#FF0000;" parent="1" source="xOD4DcTMaBVLioNBanpC-2" target="xOD4DcTMaBVLioNBanpC-4" edge="1">
          <mxGeometry width="50" height="50" relative="1" as="geometry">
            <mxPoint x="390" y="430" as="sourcePoint" />
            <mxPoint x="440" y="380" as="targetPoint" />
          </mxGeometry>
        </mxCell>
        <mxCell id="xOD4DcTMaBVLioNBanpC-7" value="" style="endArrow=none;html=1;rounded=0;exitX=0.5;exitY=1;exitDx=0;exitDy=0;entryX=0.5;entryY=0;entryDx=0;entryDy=0;strokeWidth=2;strokeColor=#FF0000;" parent="1" source="xOD4DcTMaBVLioNBanpC-3" target="xOD4DcTMaBVLioNBanpC-4" edge="1">
          <mxGeometry width="50" height="50" relative="1" as="geometry">
            <mxPoint x="275" y="380" as="sourcePoint" />
            <mxPoint x="415" y="480" as="targetPoint" />
          </mxGeometry>
        </mxCell>
        <mxCell id="xOD4DcTMaBVLioNBanpC-8" value="&lt;b&gt;&lt;font style=&quot;font-size: 16px;&quot;&gt;Host&lt;/font&gt;&lt;/b&gt;" style="text;html=1;strokeColor=none;fillColor=none;align=center;verticalAlign=middle;whiteSpace=wrap;rounded=0;" parent="1" vertex="1">
          <mxGeometry x="110" y="210" width="60" height="30" as="geometry" />
        </mxCell>
        <mxCell id="2_dL3pfDpdtr5o0odnZ9-1" value="" style="shape=image;verticalLabelPosition=bottom;labelBackgroundColor=default;verticalAlign=top;aspect=fixed;imageAspect=0;image=data:image/png,iVBORw0KGgoAAAANSUhEUgAAAQAAAAEACAYAAABccqhmAAAK2WlDQ1BJQ0MgUHJvZmlsZQAASImVlwdUU9kWhs+96Y0WQEBK6B3pBJASegDpXVRCEkgoMSSEJjZkcATHgooIlhEcFFBwdARkLIgF26BYAOuADALKOFjAgspc4BFm5q333no76+R8a9999tn7rHuy/gBA8WMJhWmwHADpgkxRmK8HLSY2joYbBCTkowRkgSWLLRYyQkICAWJz899tohtA0/Nd8+lc//78v5oChytmAwDFI5zIEbPTEW5Dxgu2UJQJAOoo4tfNzhRO822EFUVIgQj/Ns3Js/xhmhNnGE2eiYkI80SYBgCezGKJkgEgmyF+WhY7GclDnu7BUsDhCxDOR9iVzWNxED6DsFl6+sppHkbYCIkXAkBBTgfQE/+SM/lv+ROl+VmsZCnP9jVjeC++WJjGyv0/j+Z/W3qaZG4PA2SQeSK/sOkzRc6vN3VlgJQFiUHBc8znzJ77NPMkfpFzzBZ7xs0xh+UVIF2bFhQ4x0l8H6Y0TyYzYo65Yu/wORatDJPulSTyZMwxSzS/ryQ1UurncZnS/Hm8iOg5zuJHBc2xODU8YD7GU+oXScKk9XMFvh7z+/pIe08X/6VfPlO6NpMX4SftnTVfP1fAmM8pjpHWxuF6ec/HRErjhZke0r2EaSHSeG6ar9QvzgqXrs1EXs75tSHSM0xh+YfMMQgEUcAaOAAb4AciQQhAVmRyczKnG/FcKcwV8ZN5mTQGctu4NKaAbWFGs7a0tgJg+u7Ovg5ve2fuJKSMn/cJhwBwXIw4N877ltcB0IT0IqM+7zNEapXLAODiJrZElDXrQ09/YQAR+UVQBKpAE+gCI2CO1GgPnIE78Ab+IBhEgFiwHLABD6QDEcgG+WA9KAIlYBvYBSrAAVANjoBj4ARoBmfABXAF3AC3wX3wCPSBQfASjIEJMAlBEA6iQFRIFdKC9CFTyBqiQ66QNxQIhUGxUAKUDAkgCZQPbYBKoFKoAjoI1UI/QqehC9A1qAt6APVDI9Ab6BOMgsmwIqwBG8CLYDrMgAPgCHgZnAxnwHlwIbwFLoer4KNwE3wBvgHfh/vgl/A4CqBIKGWUNsocRUd5ooJRcagklAi1BlWMKkNVoRpQragO1F1UH2oU9RGNRVPRNLQ52hnth45Es9EZ6DXozegK9BF0E/oS+i66Hz2G/oqhYNQxphgnDBMTg0nGZGOKMGWYGswpzGXMfcwgZgKLxSpjDbEOWD9sLDYFuwq7GbsP24htw3ZhB7DjOBxOFWeKc8EF41i4TFwRbg/uKO487g5uEPcBT8Jr4a3xPvg4vABfgC/D1+HP4e/gh/CTBDmCPsGJEEzgEHIJWwmHCK2EW4RBwiRRnmhIdCFGEFOI64nlxAbiZeJj4lsSiaRDciSFkvikdaRy0nHSVVI/6SNZgWxC9iTHkyXkLeTD5DbyA/JbCoViQHGnxFEyKVsotZSLlKeUDzJUGQsZpgxHZq1MpUyTzB2ZV7IEWX1Zhuxy2TzZMtmTsrdkR+UIcgZynnIsuTVylXKn5XrkxuWp8lbywfLp8pvl6+SvyQ8r4BQMFLwVOAqFCtUKFxUGqCiqLtWTyqZuoB6iXqYOKmIVDRWZiimKJYrHFDsVx5QUlGyVopRylCqVzir1KaOUDZSZymnKW5VPKHcrf1qgsYCxgLtg04KGBXcWvFdZqOKuwlUpVmlUua/ySZWm6q2aqrpdtVn1iRpazUQtVC1bbb/aZbXRhYoLnReyFxYvPLHwoTqsbqIepr5KvVr9pvq4hqaGr4ZQY4/GRY1RTWVNd80UzZ2a5zRHtKharlp8rZ1a57Ve0JRoDFoarZx2iTamra7tpy3RPqjdqT2pY6gTqVOg06jzRJeoS9dN0t2p2647pqelt0QvX69e76E+QZ+uz9Pfrd+h/97A0CDaYKNBs8GwoYoh0zDPsN7wsRHFyM0ow6jK6J4x1phunGq8z/i2CWxiZ8IzqTS5ZQqb2pvyTfeZdplhzBzNBGZVZj3mZHOGeZZ5vXm/hbJFoEWBRbPFq0V6i+IWbV/UseirpZ1lmuUhy0dWClb+VgVWrVZvrE2s2daV1vdsKDY+NmttWmxe25racm332/baUe2W2G20a7f7Yu9gL7JvsB9x0HNIcNjr0ENXpIfQN9OvOmIcPRzXOp5x/Ohk75TpdMLpD2dz51TnOufhxYaLuYsPLR5w0XFhuRx06XOluSa4fu/a56btxnKrcnvmruvOca9xH2IYM1IYRxmvPCw9RB6nPN57Onmu9mzzQnn5ehV7dXoreEd6V3g/9dHxSfap9xnztfNd5dvmh/EL8Nvu18PUYLKZtcwxfwf/1f6XAsgB4QEVAc8CTQJFga1L4CX+S3YseRykHyQIag4GwczgHcFPQgxDMkJ+DsWGhoRWhj4PswrLD+sIp4avCK8Ln4jwiNga8SjSKFIS2R4lGxUfVRv1PtorujS6L2ZRzOqYG7FqsfzYljhcXFRcTdz4Uu+lu5YOxtvFF8V3LzNclrPs2nK15WnLz66QXcFacTIBkxCdUJfwmRXMqmKNJzIT9yaOsT3Zu9kvOe6cnZwRrgu3lDuU5JJUmjSc7JK8I3mE58Yr443yPfkV/NcpfikHUt6nBqceTp1Ki05rTMenJ6SfFigIUgWXVmquzFnZJTQVFgn7MpwydmWMiQJENWJIvEzckqmIiKSbEiPJN5L+LNesyqwP2VHZJ3PkcwQ5N3NNcjflDuX55P2wCr2Kvao9Xzt/fX7/asbqg2ugNYlr2tfqri1cO7jOd92R9cT1qet/KbAsKC14tyF6Q2uhRuG6woFvfL+pL5IpEhX1bHTeeOBb9Lf8bzs32Wzas+lrMaf4eollSVnJ583szde/s/qu/LupLUlbOrfab92/DbtNsK17u9v2I6XypXmlAzuW7GjaSdtZvPPdrhW7rpXZlh3YTdwt2d1XHljeskdvz7Y9nyt4FfcrPSob96rv3bT3/T7Ovjv73fc3HNA4UHLg0/f873sP+h5sqjKoKqvGVmdVPz8UdajjB/oPtTVqNSU1Xw4LDvcdCTtyqdahtrZOvW5rPVwvqR85Gn/09jGvYy0N5g0HG5UbS46D45LjL35M+LH7RMCJ9pP0kw0/6f+09xT1VHET1JTbNNbMa+5riW3pOu1/ur3VufXUzxY/Hz6jfabyrNLZreeI5wrPTZ3POz/eJmwbvZB8YaB9RfujizEX710KvdR5OeDy1Ss+Vy52MDrOX3W5euaa07XT1+nXm2/Y32i6aXfz1C92v5zqtO9suuVwq+W24+3WrsVd5+643blw1+vulXvMezfuB93v6o7s7u2J7+nr5fQOP0h78Pph1sPJR+seYx4XP5F7UvZU/WnVr8a/NvbZ953t9+q/+Sz82aMB9sDL38S/fR4sfE55XjakNVQ7bD18ZsRn5PaLpS8GXwpfTo4W/S7/+95XRq9++sP9j5tjMWODr0Wvp95sfqv69vA723ft4yHjTyfSJybfF39Q/XDkI/1jx6foT0OT2Z9xn8u/GH9p/Rrw9fFU+tSUkCVizUgBFDLgpCQA3hxGtHEsAFRElxOXzmrrGYNm/w/MEPhPPKu/Z8weACQViFwHQBAyqqflLDLLugMQgowIdwDb2EjHv0ycZGM9m4vUjEiTsqmpt4h2xBkD8KVnamqyeWrqSw1S7EMA2iZmNf2MhBlA9E02onfCH7lYg3/arN7/S4//nMF0Bbbgn/OfhYEWzjQxsxAAAABsZVhJZk1NACoAAAAIAAQBGgAFAAAAAQAAAD4BGwAFAAAAAQAAAEYBKAADAAAAAQACAACHaQAEAAAAAQAAAE4AAAAAAAAAkAAAAAEAAACQAAAAAQACoAIABAAAAAEAAAEAoAMABAAAAAEAAAEAAAAAAA3A808AAAAJcEhZcwAAFiUAABYlAUlSJPAAAEAASURBVHgB7L1psGTJdd+X99by9qVf7z29DWYAkBgSFAgQIAEuQ9EKy6JIUbKpcNiml3A4FOGwIuwPivA3QV/sTwrL4fAHhRyhsEIM26CCFGmLuwWABEUCAgiABmYIYDjT09P79vb36tVyr/+/k/dU1avu192vu6peVU9l9315761782aePFuePHkyhEmaQGACgQkEJhCYQGACgQkEJhCYQGACgQkEJhCYQGACgQkEJhCYQGACgQkEJhCYQGACgQkEJhCYQGACgQkEJhCYQGACgQkEJhCYQGACgQkEJhCYQGACgQkEJhCYQGACgQkEJhCYQGACgQkEJhCYQGACgQkEJhCYQGACgQkEJhCYQGACgQkEJhCYQGACgQkEJhCYQGACgQkEJhCYQGACgaOHQHL0VZjU4CghkIdgOPCF118vUY9TX7ibkt95/WRG/tNf+EKTfJJeTAhMGMCL2a8PtUqEbgT+Vgjlsoh+KpxLy6GRVkKjvBWytDp3vJKEPFndbpZmQpJPz9WyLEmz3a29eqbrmbDaaIWQnw9BWcj/QczDZ0MwRvHQByc3xgICEwYwFt307JX86sc/Xtm8f7/0iXu1hb1Wo5rtTp9MQ3OqORVOpnkynSWtl/I8TJeblZN5yCtZyKZyEby+uJOEpJ6WshtCklrIyjezJK+FZnonDdXa3sLd+zOVSmPlwYMtPZvrGd6ZpDGDgITBJL1IEPi8JPyCJPxp5RuS+se/c2220WpW1pvpSXX2VAjNUygAedY40xIDKCfpWRHvdCtv6pWkkooJ5CbUSzt5ktVLeV7R/d16Xp+SCrFbD9WpVqjtze9VKjv1Un03LFRmQqXxTnhQvyxt4B/oA8DzsxPNADCMfFLfT9KLAIFvh9eqi2G9NH2itFxp1KZr6+WXs5AvVtLsY5Loy3mWfb86ezZPkxNI+jQks3FYAIEj8hMXBoYTGg5kOsml70vFT7I0ZHt6riUDwbreq2eV5IasB5ulZvoVMYq1UqP8RhLSrdrC2q2pSqU+0QzGA6u808ejtpNatiEQiTckVwpJfyLcnS+HZmVvZ+pMnqUzaahf1MNLeShdSvJsSecX9I7u58s6L4s5TIvA0fXN6CeC1+39iTv8KIZBLsmeZNIO5pTX0zyXchC2xBhu6XxxJzS3xVQ2p/dUi3qpdjUslXZDpfntcG9vV0V8vNAMYCr7vzK5OkoIGLc/ygpMvn04COS/KGPe2yG99bUzy1moT8+Upy82ReAixk+Jso6FLP+oiHVOIvuUiBr1fU73MQBWddDfJf4g1smfFgGgWg6VLSbAedLUuzrP9zivhPyB7tdaSXhX99dKofUHYgiroTXzZhrS7eWwezeEBb3zFprEJI0IBCYawIh0xEHVEFEhhIOs95VpnV/7ncWZZqtVXQr5yVKozuzmdUn4fKkUKhfzPD8myX5e78yWpPbLiFeS2K4+isit0IM++oj7lFGUk8bzHIbCPRkNxX6MwaAZtFriLAt5nlxqaggyHRqbqsfWWtgTB2rt3QqnN3bDTOtKuNIUR8j/djGbQFmTNHwIFH06/A9Pvvh4CIiikl8Rwf9MWJnTVF11M6xcqIRsXsPvH5bEPZaUsk/qmUXZ38+KjrDcy/Zn0h2CTzR2L0dCffx3+vEr1K9vGRfQWV2XTA1qFkG2gpDf14/baZr+mQYcq3kr/VKalNZKze13KmG6thBurPG8nuWdSRoyBCYawJABftDnIHh++5oId0bn98KJqR8L9UorlFYaoTJTCrULUukXNCd/KQnZMeng5/X4gl46qcfLen/KCtBNCPKwEl6vPHMqvmtDisiMbMxRVT00EgmVJE9287y1Jk1gQfaIi3loLpZDdS8JrZ1bYV4+CZX6O2F1b0fPfySEBhVRmTRjkgYMAceZAX9mUvzjICBMT8Krr1bD5mb5zu3qGanUs2Emey3Pwkq50fpxydblVpJeFk3IcCeLfsjFuJMpGfQSiU2T9Cp/pPoS6uWQ8aGlnFM0A5yINDuZ7Mn/4JoqvJ4m6R8nSf6gGdI/zZNka7o+c6MWjjXOhq/tTpiAoDXgNNEABgzgg4oXRWCYS65JQmosXEqvry5pLn6qEtJzopf53Va4JOkpSZ9LYsqkHsIZPV9tiTmIMIw2oCqdjGSiXhxFO6kjWgqaiTSDvFnSH/0ujSa/pKcWKnl2VwbEzVbYa02H1dpbYWXtRphung03YBw8C/OYpD5DgD6apCFCACv+G2+E0sV3X1kut3an7zeSVyoy4mna/TOS5itpkr+mwfScJL1U+yCnnKARAXSTmzFP14Wq3VNps83z5Mh3qdkK1KCm7BbMItTUpIaGNcwi7KZZ8qburWoGQbMI6arclL8nR8XdxquVB9fOn29N1ib09PtzXk40gOcE4JNeh2B5Rlb8Klb89d9dmj7RbFZ367WzooTZUl6X9T5dFkFc1Hz6MTnTvKSx/oyIYEkv6vb+4fx+8uZKX+ATZR5VMvLSPWSm/WZ3R+mPMTDVUFOUYgE2e2BOR5pVSMQMsm3dWxQzvChzwEIlVORGUN8ON7bDmdu79fdkXOShXy5sBZ/V+Sg1btzqApZM0oAgAPHfO/Hh+b29rapc8M7mrWxhb7f5SUn3lVIp+xF9dlHTZS+JEED+RT3PHL0W5ZgV3+brH99B+lW6tAYQIT2uCQJd5msij5Y8+muabhczSGykoS8NSjNwzcOZTVowokPAVC2Ay0HI8jxEGwgaDYQt1b6eJNkN3d+Ux9Kf6IEH1az0b/X0Rnlh/frC1FQ93Lu3RbMP8bnJo10QmGgAXcDox6kwEZgmt8Pp6mqol7Ot3eMzWWt6L2ld1Hz9Yinkkmz5ilAWz7wFIf4JPV7WAPfZrfgiumROIwUxgkRr+UJTloJ12drECEJTB1qBsv7TiUgPEyQy3Qlflkv7no3Yn44u9TYUbJxDhk1YGhdVldQSzPiAiDy/VJatQAaB26WQred7ldZ6o7SbhWPprVDVQobbbiuQ68MkPS0EgP0k9QECrLqr375dvnht+riobbZc3f7+NNd0Xav0kzjoSBS/KmBPS8KtCJnFJBJZ9PNUSG5W/GfuCBWQzM+G6X/vR+QdsBTKH/iAyEamtD/9esg3N0P27o2Q7+6F1g0xBJiBJydYv35S3pb0bosTiWrYUTqzKNZVCaVTx4yKm9fuhLDX0Ig+aiLPqnnABDhk/JStwFjKrjSCphgEfgOaVgxvJUmympRaX9Sy5dVmfe5NsY2dq+dr96unTzc/8bWv2XTik5r1fv99ogE8IwYIKVM56iS/KDK4KTzd+c61+Wktt23IE0+D2zkZ9TS2T46JCVwS/sr/vnRGBC8pn8vAZ8q60byJvWesQ3wNMqE2GlhUyloGiFuAvnb3fMjEAIJW8edbWs2rkXTYk29eXXSBRiAmYe/hgmOkpuzApGcKSZ+UhDIMJypaWFgth/TsSbGyakhOqInSPJK7a9LjuxjNgWU+/gdqVdTMcJQaUHE0AzECfAj25F+wkOXJRTFcOUHtball2xfv74ba2rW6xg1b8pBqqY+a6iPUiOev1OOrPJa/AuNJOgQERDrALL0SLi/kYWdqcaZ6ScS+2KznP6ofZMVvfVz0xYpcLbsNcuQxDz3JW191d4AV/xB12PdoJryWBK7+4CVNIJ4Js//d3w3pSTGBeVVBRJ5duaLhwHpofvlPQra2Fppvfjfk2zuhcfVelNRb4gyS7m1bQVF4Xsy62X2T9CpPhF46J4KfnQ3lD70a0iVpHJ+Q5jEt82ZzL2T3H4Tt//Ufh+zOvdB6T8xHDOFZNYB9bWzXyYBvHE8OUUj4TBoC8Qh0nt2SRrApT8Ovy4D6oBRKf1SXrSANq1erobL3+2F1S4zAVjg+quz3672JBvCEni8InqeAVaL56elmaFROhLqW1ZZn6636BVnvNU9fxidfvvjmoTenZ+WLn2PIMxWfAkgD4bhMpomo861tk/Ba+hvSlRV9THMK9T2NnOdDevO8zIzzoaXnwuZ2KGkJD0ODuM5PhGq2AlUQ7UCVdEmfMHeBpD9zQoQ/HZILZ2RvmNMawwsqbzGk51+S5iGd54EYyva2SExl4PrzRK1CjxwyFbAjS8RQ5f5sVcWAyhd1K1cF8vvShea1UOqa7q83w2yjKf3nx8Ji6V6oNnx14ieKWYRDVuGFe3wg+PiiQMlIQR56d9fXK2FjUctstRS2sf0DIqtjMlX9pJBN8/fpZZESS2u19NaYBMY8PPSeworfL0jpi2JPyfJimPtPfz6kl86Hqf/wPw6JJLQRtBhCXtOYvKGx+b37mkjbCa03v63R9Fqof+WrIdvYCNnb70bm0ZQNrST5+dJpEbxCfXzoQ1HSf+yHpcsshERaRqhK5V+Syq/gYklVxC/C3/vNfyV7w7Ww/b/8c43/NUyHEQyACfRCDCbAoaGBexxqeIDdIJfrcagllfC2PAzXQi3/QzFkaQYz35qsTuxAcaIBdGBhZ0ImaZX7PfRyeehlrb3zWZ5pXhrPvEziNUjyM1+dnxHy4bBj6+u9uOcf23tJT5Pr61p2Q7ye7L4k8Zyk9p6mASFm1HNpAomINqAZiLhDbVcGwnVpBgshvS0LxrrUe9kG8r16yMUkEgj7wtmQzs2KmURJX5KkD/OaajypSQtJ/GRWSg7Wfw0zGEAwzMjXNf6v65toE4OaduwBh2rgWpUxXF2C09gKxJnkfpwHTSvm9NNFTY4uTIUGaxK2bml1YtlWJwatTgyty1EjeN/ZCiYMQFhCcg+9rXfPLJVa9emkMfOqrPdLrWb2E8KllXLe+Ig07bk8LWmALYLPtabVBI+N7ZFCkMMRJqG5CLj+1f8vpDfuhupPf08GOhHxyx8wgrVpOqYLlyW5pbiUGSKIeMuf/JTIpB5at2+bhmBMQ0wiPaVmTknSL0iLgCHoHMUb4rdEazMR/+pqyPVu40++ErL3ZHoTc4ky+eigQV/ov5ypwkzeTGZVoUxN/37NWdR3pAOp6ltpPv0Nal9NzvxhJUnXr1X23k3K07V887rUl/ePreB9ywAikhgqg9Hp1d9dmpmRh16jkZ2u55WOh5588YVNx3DYEfrjoad5LzROO6wA/hwdurerILRV7bADbGxK2RVhzsgnQFJ/X/LpP/wFlJKymi9NIZUPgRG/NACGAMlxzWZC+DOiH4j9UexN3wuK95Pvyv6wthG/y70jTkVfWI3FFsW5rH9sdaL0n7Kcinakza3KaLigZQmX9LyWJ1frSau1syn7rVZfNvLAPKaNLqTS2PtH3zAq0uf0vmQAEP/d8NrcXlivSslltmhher3xw0mYPqZVKp9Rvy+muS3KUfDMBLdUhgW2zt6V25Eg+H3IoFaJkJvX7iowVy00/vX/a+o7GoBJfZfc+97RBZJdRzqlaT0SRkCSiN/Sowg//mIaQ+sv3pbkvx4ab98w67/FC3Im48+NQE6/qWWpOhJD7bLsAhrLhFYjpD+lScK9NMve1dBgbTed/yNFP35wt3X5G3p8+8GJjVtT8/ON/MoVbAsFcEagQX2qwvuGAXxeKK2RbnIunKs8CDXFxNs6rrBVGiC3LkgVNA89dfCKrEfnBVs89KQD7/fQA+aI/tFJqjFR/dA/ZKk3xVdzDmaY47ZJ4yfhrN4lOcHHqyf/hVEw/pcBkfF/qMkRj/G/M5AnlzDUJ2glh2oNM+cc3NdlgobQ0EyOZmzNpvOe2sAsghYnJZuzm2mWbjdkUAmrtFg5GgG2As7HPr3wDODzr4fy+WuhtHzjwvG8paW0e80P52FKbmv11+WWu9xM8w+qP2caCryhnGi5OOuk6mV88g1pRqqXCxXb5uklnXH+CToqF47bNF368kXNUSyFymd+TM45EnIaBuSM/fvdCNkN8q3N0PjG12X9fy+0HsgIKIejBPObpeKLQzIGPmPzqCRDAzGB9LLYAX4CrwiqjTRt3ROV7yja8bd0+8HN6tkvyZCwNpPsvlUtVWtf3bq19nExAT0vhWJ80wvHAD5bCOm/L7JQt6Tf/drCXNbUOvtm80zDOHumMZ9Camm1mQ4F1whnlUP088r1PzeZ6mg8Wl2r6tlSIbWgpOaxCGhhLnriaXoumZ+J8/Oa/ktOrEj1lwEPpXdgSfVhVgFbgXwNDHzyNjRFGScg0wb0jN0YWCWet+BikNOxFahAiFoTPmE3yVsbapdsBfnV0GrK/lPZbbSynWVFMroSyvU8sPrKnpfxJCIQ+bgkeueFSCJk2pI8WFmZrzQa1a3aihbftBbLWfNH1JvHtfL8k/p9QTGqIHhN2yXzekfoi1++zduPlqxqG9Nc04TQND9/flGGuSkFFDgn4p8PlR/6IRvjl5QHHHROywGRaTo8ASFOpv8eN45/1t5nilFTjc1vf0sGxweh+Qd/EDLNCDS/85acknZD45pmFVgTsIqnofz2fPA0gvaBbhAIJ4xdSQDQA6BVXfgiSZ9pnJPsSTzcUGs2Snn6Jd1/UMtK35Cb1OZUKF8fx0hGY68BqIeMgO+Gk3KIbZRb26UTjbwyk2YWQ0/OOaki6+Qrso+f17PzUoZZjFMSWdkKet2zBPc4+kQtqJFyaqfMPfIUAFjErHhB+N5r5V964aWQyrMvvah5ekn89JxsmZqbT45pmg/CrzC0HWCCqeg7yTGNppRTH/M03BHBayaihCuOVu7L2K4RtqAtfzxrmnsJMoq2GwOs4zMUTa04lAqBQGwG1MoEXw8tplCXyINCPgWXdXtRcyT35GmoSEat5jhGMiraqqaMWWInnGNhtRymp04mWWuuFHY1T58qLn54XU1Z1kKRy0Iw5rqOqeNwxzUPPQi/q5P18ygl1YzFsPjeH5cEn9YquwunzPW28mF55GkOv/wj8r3HgeecHHPwyMM5B4K3eXreHzJPly0ACe+ehvgFhN3d0Pre98w42Piy/ANkKGy9fcUYQvPafTMW5jX1BEOEEdcIHDtUU2NXgrSmCBNaLMNg0tDS5Pv6bTfpiWSkdZjflavIbvPV8uooRzIaMrY4OA+fgyrdq+9q4a68uprVWhOrPeP3/KJ2qZGkTy6op5bEsSUSiaEXihh6sQNHc2xfwAPOBEGIiJNF7dGL7/3xFRvnp2fkmitJX8JBR+q9SV6m9lzFdzXfrfB+fXhQH+4Nvq/knoa2LkBDg3xX/ghoKLekoWiWIMO/YGsnlGrSDDRjkK1tS7EWGTGUoM4jqhE4MFxoqKYCuq2gUMMJfsD1w5GMtABJiy7q28mNraQ7ktGrumnwopARSLRrpJOgZGRxdemidsTYncrqc5ezvLUk39wf1W8rTa2+EyhR7bW7rVl0WYgjKnpCDL1RazUjThF/uiKi1/r+qZ/4hFnzS9//fbqe02Kcc5LyU9ICZNiDQeDkg/MOy3L1nk394aknO4ExEYx/YgJ5Mb2XoCUMI+F4BEE3RfDISRYIifizO3fFALZC8+uaNZCWYJqBnIca371mU4j5TsEIhlHHPn1DrQTRYAIPRTLSBinXdX9TffBlPfCgmpa+on7Z2JnKb0xNzddP3PvOSEQyGjkNQEB1pkTdkgdafaexfaWy2zzZlIfelMb2MsIQGvuSEE0D0AQNACmvGHo2tnefcL3eKcwuxuIPaKXDovlonl0++syx490XKlrXjyQ1gpcAQluYkitD17VNC3IfDz/lOYt1+J3rYtxuOYyB62eZ/weOrml4DuH7fbunssWQEhyMxJRSGSh5J1mYleIs7VlLixniWBuoh/6PhkyMzXiav0WVBWw1oyuSkXoPbsbP2jsx3NRvC5ouuJW2svWSVk1njd1d4XVSRD1Wh9rDemf4iUqOTDLi7119F7Y/yrSdNrz8CVVUe+Bll/XctABLDL3usb0R/kg16NCQVe0R1Da9J/OSCCeZixLeVH21MJGp00J/EYQDQrdcz2lmwGwBLP7BhsBiHfkHpDIKmnou195EhsF0STNZ0zOKHPSK+Qgkp7W672m0A5fsjTjmZ/GQSXgtNyYPrDZkbQAhO3EQ2o3xADKWH4tp5YoVgJ0gv3bVtIL6X1wxt+Xmd+V3YwyOctWjA0o2t6uyjSwH9A2KpQUc6kaZQY1NeiQjGUeC/KZjJKNW1vqiZka0H0L5O7q/07hcuXf/+PHWsCMZHbkG8DnBCpe7y+Fy+XbYLZWvry776jvtIqPBLjH0Ak46F9SJ+OErso7N8ZtRT9cGcGPDXIx1EsrIaGGEJUs6duhcS3dNUvv8PwxA950RpLID5GIYFpQDhiBGgLrfmtFQAhsBmoPG6anG30wPtrSMl+FDrrX8geW9x+UsxHtI4YMSEp1FPi0ZwYk1qHF7jvGPMTz3YQBY/43wlfP79pblGWsTNAOQrGltAouO7sII9AyMAsJ3xnLQt5/zPsRI8jxeRYXDz/uZA0UOfc9oS+fKLZIRU8/ilq26DNQCfnJR4VoWtJfytljpduX2bli+tzv0SEaP6fV+guXhsgQgaDbdDOeWG6E2nYVZeWBly400+3FVaqWU5D8gKM5J3Rd/MILHoi9/7tw89HR+ZHXXtwec1DR38W230k8KVHaCdfUZcPCIizqImktsAnomSVD5dQ8tQg5D1Z/5lIJ5nA2z/9V/Kf1K/FVawYFMQATb/MpXJMXvh70vfjEuOIIxQfDbkuo4/egZQoHlO+A4jEForWXB+U6hMTAVKJtZLiaCXMztWhWU1mByEh+8h8iUFhwuefOR9ECKgQlHLYsadlWTeEBGnhL7EGiQmgH1KKojCHjU41wcUi7ISbipfEuRjL4hqBDJ6N8IzTVvsnc1CbN7l8MVcfDBrU4cmgYgINDD4Q3BXsptuhqOTe1p00vFqDmtfeJma6Euz7xkWeh6UQihqbtE8fHDjGQgUt8WcvC+FcLJC50ELbCGP5YX52QPqcntB/hVj4PuDyezWxe3k+2ZkN2+Jc1A0FZ0ICN+bAnOVLpfR0ITU+feXS37vWMLf4g1mBBNCAZgkr8IQ65nc8UkMAZQF2EbQ3AC93p5HhmUaR/2vf3t6K7Ck8+FJW1AxXNK4yAgAF+U9cSupYsYA9AiMMthA9041X3+5O8+3RNFmWRiwTGSkXJiG7a05Fw8IKgT8geqifwL6tdUx/X5UNZW6vWda2ExnVYkozzcE2ctmkBB8fzpKvCYp4q6PeaJPvykjkiunQ/Tszuhstc4d06xW+ZLjfDDWmK7kobWZ9R5S1qx/ZLaRJgnmbltJDyY1XdtAgI9SBEh/aoXru1YeYVEje90/YVAlDyGXueXCNq2B5yjGd19lIn2y0aQnpUvwakTYe6//TvaiuSlUPnRz5hNYF/VIGgCfdy9G7b/4T8M2bXrof5lef6J+G3bTxObaj/Ai2DQeQeS9oM9031v3xee+8IlPs3iK1rVY6MoJD5eO1s6NOkY7mj4zbXUbunkSTgbpvQv1d5r2npE19P6C0vy7hmkRkCjqSuHvtkTySisixHUtB/COyIbAT/5A/ZO3JuefUNDve3zM1s3NXRrhrfewkORIp4rDUwDUM0kXoisc77yHa2+O3k/W25lzelS0jpfyvKFpvaP11hoRY07r2ZIyuen9fy+XW5pWSEnOO1DEsioFcSIyVD/Tepx6gTuGFCMi2VOi8+YoYwHC5gXiO0qrfpRTdBvzmA89+7lN141AuE56sGNI0iqm3npSfpndxVBCMMhY3rm9LsNgtQVwx3xBokvoFBf2udALr51gU72hX0JYHYlh+OA2uiQI+cAnBxIfPVEkUP88ZDxXev8c8UBigxAjjr6jaFAZgyAt8E1mVYNLdTRlve0Sk/0J1FuUTaYSIIWi6jHOXysoWXJMnTbbNdCaNY3y61k805dzscbTa24OL32jmLSaIjA2AZspNmHTn1nAJ3IOq8sN5s7M9Va9kH5SS+3mvlPCmmOtVr5a6qlRgHJcTWuIu+9/sTH7216QYAumU0Si6jTY0J2rOPLhZV8SYYwXeM7H3NVTUSQKvItORFwjSg8tFaxuKZN+LvR6p0xJsb4hYFLuRm/lIcNySCuMZ5JlW6tStsjVPe6nnMmYXU3ztQRQb3t6dd1QZj5quTi3nqo/7biBpw/Fyof+UFZW+RmTKQgZwKy3reuvGOSv/HnVzVsUKwB4vCmmnEYcurmu90EXxPeg/lbCTnEDimr1/UCz3EPyd8UM4MZWLgfy/dMFkxrcAArO64rNIIz+ZSYQKqwIIqArPtDthXAC6ZVbwWeTT+oamIZ+bDuNar15l0xqO1mMvOGrCsPpK/84XxoagPVlbfTUJV71S1mGXjedTFdPjk9NwNQZak0CTi2I+vEve+SOTGyi3pE8fHZ6y3XHnjpOY3SRIU5y8fUprj6zguhoOdPKo0JQoxfzHML6ZOykJb56NPylZclPV0RwTNHfkyLa8QASoS+MkYAwYtB4IUnQshn5y23eWvmtfcxAMFaY17GwqUdCF3oVjAAnF6MEazJhiNCKmnhDnP6eVVrSsS/s1Q5xrNiDX1OHD3TEoAEqDvghHrP9JykOpGDcM4hKIh5GPJp6sIYX4FDo3uv1H4t7okazIDr1i7+yWN7pDoETg6xkwM9zkn87T5gFhw8BaRhFhCBWm7vMmSY0qGhqQ0VtOoCJNXhmoEulHi336kos7DE7F+dqDpIO052S3m2qWAm8xIll9TypSk5h8iesPMXWp2oyNSHXp34XAxAgNUWWB+dnQobuKjIaNdamFtvfCwL2h2n1Pi0GqS40aXz6sZqS5F19DwkJaqT4m9k2UcQtqWpShahl86JwKfF089rmSzRbT/wskws86H02mvmW5+eOhVV3mLVXKpnzSDlDjOFo4x1Cl3iBjLPIRAl+SXwJzaE3Ba9KEf6Q2RuLYchyEU2u3VTVvSt0PrWt6QlyDPuHc2Ly5DWvH5b6rak8h0xDBnPBKpYZluVjpd9+8sQR0yn/u33QnJzI1R+7/e0sOh8qP77/4FpQ0Hz/QT5rP/Rl0J29ZqMgKz3xw5VoGnfKvLogqLEF5kKlEC3rj2UINw4tpco1DXEK4zXX/1TtXgu874oiqW23TX2a57lkB5mvytOshH6DVkNgPyiCmQ4cFZyLdoKsBIkigkn4cA73YXq2kaEyvudhAlmAFf5MoyzwUxyXN9oqfs+rZ/2Wkl2U89sLLbm/kiM4MHt8JL2RSixOvEaqxPz8LVdVZWmPjIdmgGoJOCT3AznqkTWycPGym6oi3zy8+K6jOUv6QEi61zQc4qsk59UBRSBJ68COK9JD/weWbmnv6nSFMoDG2uCd9mUOum0fOcVHddWqckLjVDZMID0vHKp9alFt9WYl5h3qPpoA/QqDIAEgTxFeqgdkpqWCgZA7Pw4XSYGIImLZoJ7LFF5E1nTWzAujbFLshXYuBwak1aQu7SFF7ShZiX37w/Ewnc0J5/J0IcPgTn04L2ncT7nbCaSraGtwND0/KAYUtEqxw9yDprPgfoOZGPuqj7SHDbw7BDyd/kGfUlp9LwElQ0nNqUH8E15UNjQgCcgALcVoBc8hAP6vV+JsovyHfK2OlH3hKg5IxsYxKL2TbwkDBK9KZCJll9pQNRgdaJm3R68o967DOj0gt6jye1UlN2+PvCEsb3m8ErvfvvS8STUpDSmHxIPPiaa+ymBQHHWsu9TYTNsSaFvaK6+T3vfHVij4ges8BUpPxe1/Z6CY1Q+9oO2KUblx3/CNq4oSaqZcQtJL6luzjEQt7vAOljVkP6mAs6umVBPCI4czYCw3ajYGwwJRGhvvxPj9CNxZXBrfP1NMQqtqrsl2wHDg6dkSIduA/UR8yt/v+ILKKjI3H//90J6Ql6Dug9T2Pz7/0PIbtwKrasPxMBEgg6vQ3/o0S8cOLaXdz0EL11J/0SMQi6IU/NmhsGR7Huw+dGfsCHCrXxHBkCF+qQMPXcQ4vt9cg6JBiN4Lc2C4uSRhq0AzUCTc2IVC7rmGfwL/F09NjCNgLJJYBeHmFF7daKGCE0xAi23THcEszf18/2ppPRbovoHW3PX/zxdCDVFx6qpngVyigz00COTnvD20G72tZ8pK2puNdTP6dLH9iuy5F9UlxxThFUF2rC979qRdSi432QVK0vVqKHYjNR7fMrTM1o2u6ypLa2PZ1ccDFvJgsb3J6Xq4xFXGPEe0t1igQP4W4DPCaaHgM1zD4bAMl5Z4OMOPtJUVP/A4p9bQlUZELNNSWhJ6eg40+63/tYXhoSxclbx/e7dE2T1HdU3l+S3GQAMnc7I+vLl5x/b96UajyjEISy2aAnmE7Et2gqQ/No5QYwpEyMAvxOzFXAGrg/DVkDFqFNBBWgCfFt+BSAUwW7ymmIcSuVMZhuhcUnQnpupLd5LGk1ZoHfu6qF2KLMCSylyf8rDq2rfeuVmmL0gtUJ6bONTAsXxtJT/mJ7UvvZmzCOemvbIs7E9zIQdcRzl9xfY1ytVW+vmWS5b/dRrUvdPhOm/+TdVu+Oynb5ixJ6i2kN0ED+pd9AW7x79X+szVYNpOHzpcQGW3aD5pmwEmqLb+xf/Uvn9UP/6O2YjGAx0C3hKg5r+uZ/UsmMNlTR0yTd3ws4//39kC5BdAvsyjOE5k0t8+Aml7Z+37xrbC5FgRK6zusR/ls9jJHxaDeBx5QOBSORxCMBQQJamwlZQNVvBivQE/AzmFGuUZ3mHwxPtGVQCnvomvMtXJ7Kb8qpubEpUflH3b9Yrrf9Da0NWX9q8vqqqZA9pAF8VycjKULoTNpY0c6pRYUM6dLakcdAllXs8zRNF1smlT+cnVDiRdRh9W2cq29dYrgeSxGJsrbwQFndWpD8RcZjCMrdWiN6nsgZSgT4W6oyJcbeSzVqIsaVnpcFo8U6i9nEv/e4tgzF+9W2jY9+qIdRpCE3kvgvTSRTnH7uALezRjIUta6GTnyOBnCRyDrCUY1BjexXd19RdbwqGIUUCz40BRL8CzhWgVb/LIB6HBjqLoBPO2n3eHkyifNXTPgdtxkvzeJnVvpUXxHxKlSw7Lk0A0GvsGdm6cnuR98tr0y/LU6++rA0y/rquT4VS9mkhnFwU0xN6qj22F+EfTWQdiQ6T/D/9MXmwaTfc/+I/t/lrC4mFAc8lPo0a54SNQFpB9s7bmn+/HXb+yf8Wspu3tfPP24PTBKQxJQqzYqsNNRWKrcIDdxwWlC7pOxI8Enytj2P7p61TvzSA7u9BLCQnaiwAUJ4WO9u4WoNQsxWcka2AWYQ53UUzUFyA9jtWwAD/wLRUP3RMuoEJj3Vxpf8rTdOrtb3tf3Y+bKx1awAajIapVqtxOs1aJzRuuKAXT+l1jfml0fTM20eupl+GmtQMlgIx5j99UlJSln5Z85OVY6q5XAt6xtlDrVq/P4ZGgNGSYY26MNEwJ9EsQlK5GmMEGBrRxX1M+o5JfbQSBnKgzqHG/qM7tu8jlKwohzyilPSwrUBKlfoIW4GsOKK76IEoj5MoonVPEB5oKsqnNzmV3Q6JnxyXF+6WZjmMhI0BfFtDmgfh4ivy+zoTsvp/o4fPKJb8h9WdWnKLNd8cYIcwtn8MPEBE1rm/JNcCqfzTP/ez0gCwXL8k4hexvEjE72BgelLr9TFmzvy1n9VCnGuh+cYVqelCN4yDjn3+/PPmYDWr2JUYf/P3cOZsPa868eazztvz7XFKBZFZlWk3s7gcuwIEFHYnaAGMcqnSAaeiD2Tz0glSBbTYP2ugR4aQklLWzE7J9W63FZam3ggXy/jey19f09Aa36vrTqlBZ6W+ndYYZ1HnxiBoWHdDh1DTR3+CSjBfL68DYt7b9tdM572IxO8QoH2ae6GtiSz1tgOQGGHsEXqmn0nlWZHd5XafP/5b/iS5LAc23RbH+P2bt398DUbvV2DhcDmq2vn3xZsT9Ys5FqlfjKTLVy5fnjp1Z+vYRq3181qPr1j66YdVZdx0jfiPqtIPf1fNkA5SWpLh75hsryuaq16W6v8iE78DQZpAqqFAqO3JOq81DFtyIJIv/zAcc7wKT5vXxZsg/o2sYfPvO7rGYNYkFgCFjIQkedrWPPk5Jy6axSFdVLJeM7m6YsoQfwEkPrMDeBLOpxq+Fs8qG3hyWwy2F/VLvhaae/KelOfJVvNuuN4qa24/WcurQrGWQmnny1mSSu2P22INvHbP8gEgziEDlR3PUsY4vsMQiMNMOgBgNBNWgG4ad8KINnDqHOs+ui14Orh6G719ED2ETZwBJKd2aDAjoCZUzQiI+o8R0Inf33+6rz37U4wSOVgjoUFjrphMuc7FDmJHlG9fu6ZtJRdmFsK0Furky1Na7UJjRi8JZHKXba3KWUXRa/Kb12XGELJ1r14bvUr3p0Zyw23dkD++1uNn92VWWpdjDulorTKxDl1/QWqkHARQ1T8QryZGLWRTxAu1QTi3W2gEme7DBMy9QPmwCEKfeqbUy7A6BE+btaZM7cVD8Jz+4gEwrwhMjPKBRyT6wU8D0jCX+L4sUL6kNtUqLyBjAqx54Lc801SvUqHm1/XQNIRfqqpbvLGj1ymqGfPSCjuVr8pTDi9ApssYBjBWfhETDkJaYZityidfLsK2noDFQmgCI5jAGT9AfNRgGAAWcaLx4LvPtZa7GqZ1WtE5088jl5wWnPCd0aHqc45DENN9SHyuZwtrv8PCGzToVlI+B8wWOOP+jPTHFqM1qPobIyR5e8pva2unOcVkn93bNhXlVKaVc3px5kislPrwQQlpJ7zHNx732N1f/b9tpd/skpx/tAtucvaM2NcLxAQgcE37ZW//Rcjv3Al7v/Yb5pOf3ZZ77q6UOe/Bg+B11PehfiWkIgipZat2DTKaZpAyJs1lI4chRCOhIe6IMDbqQnIC9rG95qCsTaf1F4I/rnah2k+JXmhyRbNrvBNNbJQQCTKe9f+vS3z3t2joRrTB1I3w1wTdCF/+6l/PmhejmD3xB21CpZ/hGPBohRjoqqsDoevWEZ2qhjgxyTfeItlo2S+x7RQ9WMZBeSsT0YY98Wzmc9Qp5AAQYtuACNBsWI1HHL5b8gKUO7Ct3WdVHr/TxhFO3TjDOcQBfqEIwwBayiEVGEL8jfs8EZ9zPTTesdtD+eNQpU5eb6S+j+2R8Gg1WnViDCDeRwuIhO/vD6vefIcDmHJESU/kI7QuDjlzFb8peyiVjykQhJRMvTBrL9/WGSueG0JEU21ktQQAcBoa183ZHiptGDek7rMwpvGV72m57zVJw5o5Bc38ws+b00zpQ98X/QK0XnHUieQhcImwbScd7a3X/NafWSy+2q/+umIE3A+Nb0gTIBafrQx0NHuohJG+4QRFrsgMhrhzbLWp67qYuNkKNFGFrMJtDYbQGrCtgG978vpB/JprsfHxCZE7WgwSv3tsDxOITKJj3qScQdPHoyQ+cNvUrAvMdEPyH80KQU7b+O1xqa0zA2wAgPoA92XsQAHkPESD+d1T97nfG1oOoRBTnvzWHQu51ZKBLNUa9nRZq5G13r9tHMQ2gLQcNdMmUpxE/ADOkew6CL0dFFM/e08GPy3HzW9K+t9XVB7CbRM9aMQMf7ERT/8XvOnGnSj9ef9hW0GUaNFWwBMRYgXcuNGH5HXxsT14Dr5jxR+lsb03ldZzQK8u8SHy7rE+pA8dP01qMwB/mAiqfAKDAZ0zoxVqAOKYxjiMdeaKiCg8D/AGzfH4ziMThKCQWvVvXpHafy003rkuj7nZULV4AIr1+hOfVjwAbaZ54ZKtDmRHXWMCDBOOPKkLMe4RD2Bdhj1pMc0rb8d4AF/8Qxn7NFv7ze9oZaBsuLcVxc6Yg94Zc+J/GOzqQzE/8AjpisjBVgCCD8pWQNkcfJNDDuRG8NGIx7z9jKn2x7Saz8b2Eh7QQbkY29tLuiZRzqCTS3yz3OtjjWItxaYoFBht2vw+AhuWEBnDYer0EAPwl1EjAJACDFjBcBhYA9cAxDWCbmD6u0PLkZxEtNGQgCWziSLtIDkDucJYJUuKX08sQMUCSInGo4VCFj8AbUAMzTQDdyTy3MfWnh+2MS7ZPWdMT3JJz0YYED4752DkIyqvVH7qm2PpZ6qP/LbG/HL8IUxYdPgB6i9aijgWW9U5jzjVX1uBE7wNZ/VBEJ9zH9vDAMBpn7f3sT1MwN+lntRtGMm/Q87hEh86RML7GB+BjQYAvT5LOpAB+IeZvwUAuxpjgIKz4tAARbLV8llZFbnPXwNUUY+haQZGuLI0rwo0a/Wwd++b6t1S2Pvjb2oVg+TKeQUKmdPMxqsvS0NQ/JaPfETX6t4Tp81omGoLa5s9KOIHWGgwyiwYRF4MHdphwx3KBYEzDCElxY43RuiMWwmpBbETTAPVflOSXPeaqPRiUM1vfVuzGVL133lX15L018QI9Hu2KsbAhhrsrmtlU5dn61yv6kDz9mKh3jqCDUrPoLXwJjhFTsQdSn5WWwHvcsQ5eTadUMQ8XR8XuWPFP2M6B9N3zNtLRhQSH+Fg+Kx7pGHhs0t8ut5UfJstkWdlHsf22yJ3YwCS/LSrEC9Wx2f5cyAD8MIcgK4RYGXko5ETdTQCJnm804qu9yKGkKuWxN9X3fKmzEdCOluDJRenBO9n7ZPX0hqCdF6ztnOKEsROtWxdxSKiTc0eYCfQb7YpJ0MEGAC5mJsxALQBMZWYitYVkr29t12xHbbN0+u3DMJH6rO2HgZAXH1Z9m1MT1BQJL6Cf2TXbphxL7sjBqG1/nlN79D7rpFYNw8BhIf6hGBgTImcXlfyfRaMbHRNxGPaYZRD3xwuAeUC0paDX7GUx9sKeCc+509D/HGIASuJkj9RtNroqTenX5H8nei/eljp8DWO7z3rX/8eOQfkLQganUF7SHzG9Uh86O9px/h69LHpiQwgzuJ2OI3i2FqB2xqB0PVVxRQxjUBEQk4kFADOOZ3hwmvgHLQtaSLq5DsicPk3NDbuGCYlb94wAk9mviQ2r3mOY4oYpFiC6bKYAsQNcxAjQDuAIZhmQG739XtVswpC9oQoCOoh9sGz2H4icMKCI80h9Ex++jZml1RnP4CwETfHbK0r0o+2y8qR8CIOdsq1941QBKiCgcF02u5cuj20dIAkj+yeWkQUNRMZVVwQgxTc0rkinxfcpC2hbaHBNN+9HTWaBzBCvdvun2dpETB/tK0A4oAgdt2vQLMJqMtECwYTIG7w9JQp+yJ62xtQOwEVkr7UM7aPrXyWOj77O3yTg3bsSGDRpvVibL8rLTISfJT4MIV+picygN6POYCoZEFqBnC2WaBy7LTiCx0BPE/xnKfuc7/X/1y1BGqAFcnMGfPqqontZafddENNhEgso20RLIhsG4CUQ6aNM9kPgJ1zTeqjGcAIqtIWxACyQhNQVBUj4JaWVRjhiwEYwWtsb5tl2kYh6jx20hGRZxtoAurEddUH7aHYrFKFWv3akpQ6Dy2pN0znVO7707QluerFz3BzEjCDaNJI8MkKDBRGKXgBE4URS9ilWEFZ2P8guSUbBsOivqSOfSBiVCwUSDHwjAQCoUe/gkgkEdPwbAUfmcqjKdP6C8RdQMWnDFNioUP6S929p8ldsybHuEcOjXHO7/2CZG/zDs0AXCPwBuwVVdsTxwKYVS01AOCM2QDyYhL9CKbEaQtUt+cGrhF4S11Fta+rhkgjHRmSSSm7q5yKo+aTu8qCDYDbvM9v/Og5jYdwTMWNkEALsARxc4tE7pLV7umPMSbdTw8Nekp8ilR83L9TVOZhSR7b49uMJ4uyhxsjLHLZRoywxQiJpFzSDkpBTLCk/RQSth6/eNHy9LimXXG+UswCtg+3nYTkudh6T7YODLSAbkDJiwav3FYwX/Qb8bJJDuWSEI7nwTtyf3dYeNge2+vD1Iz6gTG7xdgejz0IHnqi66LY4tmiP3VvEMnh88xle/WoPAkGgbKCSYUG+l5s3KejmFIE+Dzd3RG6HELy2io3lVufRJW3FH/rEEpxu505+2rfKE7i+16y/xoVT64KVHsuFdhLPSjvgmi3JOdxvst/HuEoGJoxNp2niqsI4SfLhUTXVCo7JQXtoUCe4mFp+bL2TpBCDQPQYqzSxZfi7Apbi0tDCjMqp67evnpVvFEfMi1HsOkFDHXqY/JmUaSf80m0ge573nsDro59s/uPf488HhHDkPCRPqKkj9dR8vOcthG3YuLf7hL7e/7cDKC3Orgekhr5njVhQ7EJAf50oREs6xrNYObIZw96QesAd1SxZjzFn/h8b2lP8eLTPeIaRJuSehkO6CKmCtGK2OPYXITNWFyEXWJIIwLNnaDZqIR9AES4Fppc+yYk8posnT6r+5Lkiwx9RPjFnog2bQrTKIyjFrQUbtLtcg2xb2qV5tpOqP3+75ths3VFTkyyg1i1B8r8usGoehW2Ahcz3i/DkvRem7bEF+joobrG8hA8NjTU+q1ijI9Rj99d4rfft7t+Nbi87wyAxpBobExx/IabB6jrswdYZCEdKkDO4Z2l0/d5EiR6rewFgLT/QkeSAyXG5khybBRI8hVJYoybMsrBFBIFELGowhC2SXJFFhIDIHpyojiK6SUkuWzgJ89EImeGRDYQZwAWZBUG4MFWOe9NzHIwo6ENUPN7WqV5nxkPofQgNzTprYNd77cVPPKRAd90/CfnQBvu4H3Hmo9mDI2gOcdnI/YPmwb6zgB64RtHNHHMw2+d2YMYIKHtT6AxMaNuLAYAwYfiw+bc1HGgqUeid4YcEXXMVIUkn8XYJsKeF2FDkJLkSOakIOwg1RzCLi1ruzhNZ5aIHajl0Sljc6Y3l5nexPEpqvhtgi4kOeN5xgWmOTDzAGHDXGAoJO6R2tL7ANSUR2Mu6V//wufNman+R9/SlOe6RJrQ+1HMIpb6wv01k5BaZaMf5azDh/g3ZBeByFmHD8HjyUdPRz0uMgldCudj/3M+zDRwBuCN8QYDDFCJBqP8+OwBUVMj6UfNgPNulOs+9zLHL1crgDiEZo5GHTpzK3uixVdG8MdE8EhyJLhydguC4BPb1lw+DajyksqpGICNzc9q/wBUeQVKNf8GuUEbw5B0t+k5Ge6MIMUU7Psq67kThjZmQXYk/Vm1qAO1n3Ua75cE2XKAn+RouOC6W/E9R+3n/qCs+Sr6mVIfsODpvusczgGGCkSqCVQAbypTxF/lQmGzESzqL0wA20Ehi/YxBN4duyQDXXpSxjZtT14mzDcBThmbixjN70DSuaTYfxCyWdlxYWYXY1yY5+J0JBubGkGz1RkStntszjVTmCbJgaaSS2HukTyPV8/3V9K/9eYbilNwM9R+U2N/FmYx7YmW09Ycnu8To/Z2e2wvcILLbO6KZN9NYwzENRvrs5rRCT6O8QdtzX9WOA2NAfRWEOCRokIkfBHAAKTncFITlsphADh0FChsuZ9TxtgkiA/vRLkoJyuS3Np3KcWKLiJOV6TSK0+OnzTjnG1qCgNYOVEwAMbmggjqvYicZ42YfWzeT8J+GoAy7SkGkGkvwUzTfvmqApUQtRiD4AucaF0UYpHAXbJrHyVT9blGyyU3BlHAYlTx9cgYQC+OYA0lQfgAa0PsAMKfNs0gCcuFZjBjsdZEA0J4nhsbW0Ex9i/J8zAV8Ve1WpFIv5XXfkCO7lLvT540Qu+MzQtVHQkOcbskd8nqY3TBYOgJ4ofotVy59mvau1DuzK13ZfXXdmKG9V7HoVes/x90ie+r8eoawyOotjV/D5GzezEEvyfGB8F3rPlRxI0a4ed5knGI2vI3dIwMA/Cu68iPzuwBymz37AHXIg9jEDzVDeTucy9zpHIs4xjI8CTE9x93YRFUypgcae6qvY/Rhy3ZnwQsxv2qL9uaZ8RlvCOPv3uy+sv7z3wqnFE9qZwR/z2Sr0t7NU3kDW5GPBw9a/6TwEl7dOD4jIGG3rImjhwDcFtB5KeyL8V6akwVVyVW1QRsA/OFP8FCEbHoyDwNnwR5/x2pKOJvfO+OjHP3Q/Oqli/Pynr/inY3kkW/8mOf0tSc4hj84Eejwe+UpuXEBBK2D9/H4rzAI8hF/DlW//X1UP/937Wl13tf/o7m/zesbW0t5Qiq1q9PujWf8iD4XZP4rLuP1nwkPhqAdtEyzHSB5QzD8Zf3RyVRNwlNEX6yrdq/JZ3yXVmU9j6rJrYZAA9xjJoEdcCiZpEAMKD32QOCT4tM7D5DhqP1NLQqPuaP2kBUY+IXaM1/2JYVf1brC7Q6MHv3Wkg1hm5pzM+yZQvOrvF+siBrPoY9NILuocBjvjKwn5D+ilBsEYtk8MPoxy7CFpNhzNV+sIsD/CfHeg9xuxUfye9je+6PmjVfVXpkiu3KNQBNd8S+2RPwvkzRLEkz3lXeOXEi29vczGabaUMPNBjejRIT6OWobU9DsQDquZ7FWQL3NFxyT8PCA7EkxOQ5H8sduV+BEYpaVaxWrG9e11hGi1i+/p7NDpQ+8FsiekVd+IGPyEC4HMqf+VGLbFS+cDkaAFmk5HaBR3b5AG/K1bf1jW+E7PqNUPu9L2ja757FZBzgFwdWdDc+QCRY86GIHcXPh9DXxezImc/nPnKf54xqlI9Dor5S+bUKLtmWa/GXlF9rVZu/nVVL92S8ECeXXNlLBIokwTNerDypKbc2jhIT6AY2jSKhhsXUsRVQ8W5bgWsE5MYEijfIjrZ9DmXlxWrFjFDfePLNaFHVxkzI8MFHM7h6XZGNtMJwStN/TA8ihbEVMBuARuC2gq62DeQUW4VWVLat/mubcgDSCscxtfqDRxzgDIdb813Su+R3a74RhZ4bh0S7hBktDtGJxmf5hjTjqxKF11dLpY1sbm77l7a2rEkwwvRfaTFnM8z/kjSAS+XQ+iW9uKzuZiPusUluCmRMQ72J9sLQgEgvDAsI/IDxkE3Q+D0tevTINQLVpZNUM+NWag1jfxyBTmt6cFaLWD94SU4/S6H6aWkE0gwqH34tBj89oWlEpgfxzR9UEvFnNxW4RJb/7X/0j6QB3FRU5rdilOJBfbPP5brEd2s+Y3iEyLbm7SFyYuwh8fFPgYB6rfl9rs4gi0NEtITl90TP6600/V1RxM1S1vgNeZmuzYfd269H5kAzbapdZo7QFKrphdaM7q5LpgqjMomghFm2UbNDPxJ4zqHpRAg82grwH4iqHbEMYQDch8ZgAzznqfvc7w0/F7R9e+6GpKuGBpkcTAKhzaYVq2BjM2Tnr8tWoMBQC8fkFqwpRSqOrYC4BQwNnBH0q9cMnaT+rilOoSIW53fx9VeUYmIsIv1H3OpvWC4QkXOgyIMrrim6xI/XUe2Pz0aMGA28UIUPSN4u9byaRYC6RJo8Br9wS9j+QPh+VetHbjVD9W4lLG69HnbRDHjNkrXvc6KHubm5k61G43hWT/4zvfiSCvzLemJeT8oDZR+txDdH/K93HMtCOZe5zRjATLEqcUm8DybAtdpqz/CcS4rR0AxUo4IFJ0h5Am6wyg9Pwlfk+y834crHPipbwbFQ/uQnZTvQvjXnzpljkXkOPi8TgPgVsBTir/3yP7PhyM7nfldyRUFUZDHqwiOdj1aiH72GEHy05mvRYiHpo29+R+L7rBPvjFeyQWEmPoyqv5Nl6TfVhrtpaP6GJpfva2T/pnxGCX+z/YtiEsKofU1EYw788Cuzs1sac5amNbmjS9kESjLxajNRpg6lEQhAVUgJIhmH5K2MphsIPHJ+ViG6BKDxeB7CANzT0JjAyDRQrTAHIsyzRUQjGeIYGmTq1WRjNmTHtUU6wUXPviSGoCjIhS+BMTLsA1zDCJhJOGyCARDZaFOaB1Z/+fqzL6PNZIyo5KffOehH8oet+dGCj+MZeIDGOM5J7RRRa44yJGjum5pTuiaMviN6vSZcf/CuNPoHYtef1XOPaidwsiQwcJ7+yry2MpdBYKox/WlpFKdV/C/o/nERykU9UtVwQYxgfJMzsUj82AqiJtD2NCxWJcapxSiAae3IaASO3ha6S63BViD34tJLDAlkK/jwq9FW8OPaF2FJswivftCMh2F1CSqVAABAAElEQVRZjAL7x9MyApP+O6HxJe1TIE+/7f/5n9gORdldyRJMSzb2OHo86NbYIOWONT966OFRCpHvaKALBYyjNf9RUGYfBdFhrtUjWzpbEz7/C+U3NIj5fcVlWq+E2i1hRvMT3eaMRxQEHViiMJ20PncprM/f1BqvjXBNt+pYD5XvyDbNcGBGXEWDzaTkGkHx+thkHTbYsRUgG31MiIbgshLNgKe6GV73+fAbTReRlONNyBk+XRoaZGU5Sm3IFiCDoUls+RUky9IM5jVtyE5JtIK1BppJsHG7zx4cNExgjM/ehHL3zW7fNj9/C/AxYlZ/IMJBv3K8SNZ8NaedHO/IORBQ4GeMdRhjHmpJmWIeVsSak9JSmC/XdJWHa4AF+dVBfd3w5OX6tefJv5HpSa4qFaHBWT202Apzn5GqcVLHX9G1FqFnF1SViuYXjV5QscczRRDACTkjpjG2gTn52gPkhWLtwXThV8AzHKOhEagillQjRKGI2YYAiiOQEO1YxsPSq/I0VDCQ6ic/Hj0Nf+hjFgE51fLhfdOJXhS5piazd68a4e/8T1j9b4X6N94RQ9CI8CCG0f3+AM9d4vtg9kW15kfxBK5FukLiQ/Dsy8Gs1kJhy9K+HE31erOc5zL6he20kr6RJ/kDBRf+fCkpPdip7L0RKjO75zeurQlLHmICbQ2gp8/yT8tu8lkJxp/Rsg+NAtEAbmr0DNxlbEgqqqBogCis452cbflYEIBjN4CbImN7PQ3dVsB7MAKOo0+qjcU4lK2giTuHWtESsWpokE5rJmFBW6qfOR3STc0eHFdMP8USsEAgzB4QUIRhgccJoDGsUVjD2q+VforwY16LFr5c3zkiBuD9RM6B0Q5sds1t3K35asq+5HiFdOUcokcwyftDuCnpLPzkN93HGqNg9YlcRsN0nmcv6XxO8wGXNME5X2pWVzUu2roXTjTeCfONy+HKnspzcD4ef/VUcltMR0Q+tRtOf1AgP56Wmj8rqX9Gq5/+sghlTh5TFQjGdyNFBSM557KLMfrjgIfbco6FgHPCSaMRLIoAyGdz5hXQvmGDerYA6WhoBqqRVUi5tAHG60lFQ4Mp7eFwWcuNFVWo9NoHzdOw+unPCHUUl+nll4VNYm9iBlj9d/7pP5U5WB5/v/F5OfxsR8tZB2/U4uEkmgFoOSD4WhLn7903f7vw1ff5exgDKf6107H44xIfozT45LNWmucxfFs221TcsNTwzsSvHtTDtFX3AI92RUgautVSORsqqZbm2Xf0zL0sqf6qeMWde8d2v3nntddqP/2FL8hwGJkJeTupML5vdRDxlxfDyoqcI6dZua4vLLVCaUqSUablXF2BhMSwwtdjfHY6gAqNWweoypa83rQpptghdEyUOLG9+BXQEQKE5bABgOap+9zvDS9XK6wh+kNsPqXcPA1lK5hST8lOkCzKs1CEnV14T7ZjzR6wNZo0glRBSmzOH6v/nbvSA6VJaEOTYc/3U30O4EjuY3v30GNOBAx+gaz5ag0EGfEITdMlPjgGQ0Dy++/gHslhpFO7JTwtcU8X0tKZxbP1dLPS1c8LmuWF7el3qn92jcnlTcF2v7zSzSS8+mo1PHgwdX1z8SOlrLlSyhv/rhD/hAp8Tb/P6TihQjUtGP0DGrIWQxg1cWLU6PViZxP2CeC+r/N3DjeumkFExUjwICVjMjpjvhiLLaiLTCUr9j9wI/l+COvFI02qOWgiLSapovZLuzmpIKF4Gn74svkYlBWXgE1Ja7/zhzbfnz3QALAdOn04lReOGe6AP7vaQAW8WpO4IQfPuC9LtyF/h1EPp279+orTA0QOPuG5yvlioWnOSxPrxiee4jmOp0nAkEPWoD3lshPkt/XynayV/GNZE67Xw40vXRB42zYAPQRqlO7c3FgOrcpcKaudV+CAE3IzuCiucjxPSudUyLSem1MlsPyZkokVkg5BA6DC0SrJx+MebvxGRca1o1R1S7SBBBLGToi2AoyGtFH2cp3RSePiaSjhIC6ViaCCphLTeckZ9lBkz0TNLBDdxwJ8FIFMrPED/AN8HcbA0yW+j+1d8nOf50x/HWB9Bl208WF9BCHCeUfixyFmvBZBGk4dvjYdZpFP6Vxu/fkJ0bNM29lJQbA2FU6KXO+qdKXPChX+bljR9J7WBKRTvyiCP6uH/grXIuwTArhkhQa9Inp1jgs3XXY6jV6hY1piC3QgNgGIZVPTRuRb6tLYsXGUBsMgQTDjmGLtI9fkHPlPR86qS+nUBZlmyGf0l/ve4cY1dT0amoFq7s7eHqSU/QXoS7YmxxfAKtr/PuqGA6X7TjnEzQdf1gv8qcvHBbxxgo/krxtjmlDlwRf8T8CPReEJBr5ZxeYBR9id2HGL3M+fp7nAV2XDynfUpV+Ua/C75az+P66ElbumAfyUftfawEXt67ci8j0vmXBO7OGM3hNTyLVivW3jeqhCXsFO7iQdxzAMAWgYKg5KG/KTCr0osweu2dAq2ulW6Sld8xt+Bdx3Ts+5w0qnR5zUE1AXPdJguKgzj+jb9vSjt/qf+CwlgxGcI+GBV7fEB19c4ncEhh4ao+R97f0e8SAxic85dAERojnzDMnfiVfP/5fyBGNYvchaK/812NM3kysaGZR1M10Ly/N7pem/muWZ1P3wt9Qtx9QZ83qRd5+qPi7R/IUpzZtjIJwWItHB8HE62GOobUgzoIMVV1Z/o8qnTB/javySxymoF6yNxZZ0KDZcOnpJehP5bOFXMHL7H7QJfjCwd4nv8/ceW893ytksbEgIDDDAJb7XZlzwwgeI1BdaQOKDB3PaI5P+Zw9D8hnBm/slAcQIrKCyIvNm9y8XPgJXbd2Sar1Zsqrz90LZYgJqPN8qSTWQu284oQpoFSCS3+oXK6eLwyYaEo/I2VB8YABuI2CMwzVggkH47IFOLY0nGygEqlqA5IqdiYTrRDB6f+x/UHSiMu9Hcg7YPf0dNSXgErVBCB98AG4kh16Eod0aiz9eXx+7+9geYYikZ/6eHCYAA+AgOZziVf/+OtzBQeCLwJX2LZNqEm6jAdw8J5p8UJrP6s2PyHngYpKU5Dqyf5z/LNVxjYB3AQr8jnxJOZVaKGwFPnuwIZ7P2K+mCoIg4zp74JLKAU97SDWtO6f9bu0lPkGUCHgaRD8DRwae64afLscuIfGBAYn+pJ8h/o3e2Hq6z3M8050cjt33RvHcGVWH4IuYlcJz+td3x2ZsbwSvjjWZj31FSXY5/tp5P/90wx8MfKBYoAy7FY0yb8iyX85wKYpMCS5MAACGAzAnq5L92sc/NJODRHMPmj1grEeFyXkuko9OxjR510Y0hxHG2QPInraNh6fh0wPf20vOAVOnnW7F9zE+kh6i71X1dWuskjNtl+gY9DgHv8l7rfnx+W5TpkOsv80Gtg5/+gALT7SzEPMATYuIYNp+53eEgR9I9lpyA9mVmX9X8WVsXFAigDCFONXqvF/JywUYSEIqOquBCJUGMUCYjSzGZpOriq5pQBwbOiGNi4ToradrNnWxXeCwpvYDh1nZTKLEiPlsEetwND0NVeGe5BIHfKEfdwp/kHVpPiCgx9brjabbU8zYXHas+a7JlaI1Xx579CeMgP7tPmjcIOiJcoE/CRtLpCNFoBbcH0jjIt8QvkE7mOQ1HRgf1t/yplza5OgposfbI8n1sCknkVO1n+v7iVehk0dS4RoG4LaChkAIx3JbgfPOwfDNvjfzwALpJFKcF4ncmXs+i9DxNOyMFR1W9uKI/KEfOKgbOfWnHUgbEM8lP+f8Tt+OY3LYk3O4xEfCd0t88Bba8eeG1Vbvh0jk+KXE6EbeD8Cdw9vh9ULlN2Ug0xSAZHDWEMdgwn9FkwZwMRxdel/yl/uROzNygEUVSqpxSjCvEI7pLwjFvgDGyQqJ0ll7EEnJx2K9ErcfdRxkGTEsBbMjtFbLucSCgUWcHpKnoSK3A5N5zdNjKxiV2YOHJH4xtl8trPm76i16JjLvyOh0OTapF5/cmt+7Gm+m0JTLxfw9vei4PMjGusSHfvimxvVG4Bvy/jU6KfrB6YS+8Lp118sYQCQvDP9wblCSVX6RY4N0rg0MpWH6Ht8hUWEGIlQeExr1iMsiYQqRdHiGY1wli6puiTaQUJcjnGOHekxDeegbA6C1wMGNTvaS/jjM/HpQucOb73H+ZIkfazas+vWr3V5fhzNMmPPu1XgQj2sCTiPej/2qx0HleD8wMIY+fHzvsyqwX5f6B5XB/fKrb72q7LoKiES0qS5l9LInfYDGHVNBUQJFX3ca6sDR6UCTf4dvLmiQQqPntdSBvNYqG7EoWJXl24XEccbVcRwZVpc8Hyhcc/GOdVsBq9yAw1qxR6LPHixqrAkCVgtbgVtuXaN6vtp03u6VNCAbx04h8dclaYC5YgfZ/V4HL29Xp8TRPHOJj0UKeLfjQojdQgdLmsdHGCLpjQEL0IafBeUPGsu8H9yPwiX+VlZIfJE7wsMl/tMKxEID6HQKnUvDIkeJOfeQRFEFjQDgDZ4zIHAxoOTf8O8A9kgk+z0Nm+oWxj90H7/3IuKAqjewYh2h3OjZO3sAY0ArorX0i0sqr5DDy68Pm/v3eS/C241LUeK4Nb93jO+E9LzfP2x9n/f5go7bEj0ORZ9kzY+wed5vH/w+vRt7IuI1sO/AH9xwiY/AgOgPO6vyEAOgMnwSfg4RaVGocbxVrcqKGkFhpdaVIZ483IxIC4zptwSiPqRYrr4kEyXfm9LEJUxphuUNum5olQIA2Fa8OjghmkEEUCQhpBQpsgc7Has/rhH47MFGIfnn1A/0y0IRwWi6uJ8W/YL/52EScLZX9IfcV3XuCKrAdUPwj5Im+uj3Mtpxga8zKox44FO1WNW5qNkYiH/2iKz53ldR4ov8xZkMv21MrzW8xexYB7/pjfiMv3uY/JEMgAIMCZRTPABCAlGRbit1t0YAB+W5wSbvtg4hcyd+O/oPsIUo9WIgA0NAgabecE5vE3XsPud6XBJtIUFotNv7w9ce0E/cp2PpD9cMaG93//h5Nxw494N+5xzG6ZIG6eKSxoda3iNenh4Z6eT1JOeAeQKvUbLmA0DvB2BPn3es+lG7pR+4f1iJT9nd6UAG4A95RZjHJe3pkwDuqK3U3ZoG9cFvgY5cko81dV6QpAJASDCQ2T0NfT7aJWoHgXlrfFKUvyBDnDVg7YH3C4bTmcKvgBy4WKhImlc8x7PWYo1pyZ3g9zTLAtKxKzM5rqPAsaFYM/E5XXSlUZf4vf3r1vwZyXkb22t2hXxaNhZjnEO25jsokfjWH7oBvH1X4vVCo0UDgwLdjyJSo7/97PkTGYAX7ZVzjYCOpxK9VmqXTAAeJPPUfe73+plTvn+DurqnIfVAI3C/AsbN1BvNgOf6BUgVdSQJZInJUR0NALtA9DRkgOQzKQ6fbljxPnDoHVu6VZmc330I5V/xsuK3R/ev19M1oV5rvq/G4z4MgINEm4eR+A4H9SQH3vSJ21YQVNAc8Of+80p8FbEvPTUDcE7vFXYJepCVesFimMnHvZBAfNUa6T2yrxr9vfDv0JmKfmeAZQcgABhV2s5YSoGzxQTG39OQtpGiYojmE5f3wvwM5JJw5FyTvBtYJB77NEp4Z4ie95KC40EsZfT+OoOCCdJGxvYQ/7w0RCT9Yhqt+U7wJamSBouC8oHFIJNb893W4tPZO9KwIPT1IvIROxdFgo/9sn8A278aPjUD6P2kAwriIQFwznt93LkPbAE4gOZpcgO68kElL7+TR9TlGuR2jaCumnANukQiiqD29g2qfoMq1+vtDMERxwnX7/v3/XnvR792QnL4+fOjnrsE97E9eMc5/U3uvvmc0zZ/3ts96PbxHQ76gQOiJz9oVsUZ8aD64ZkZgOq8L7lG0DDzG778cew5XVhXl3rGpMPycXdbAQDkiAghyVB4Gi4XHYCnIZ1BnALyuv7SMd6uDkEMC1X2gffQF07wXtuIZhHpnqYwf/9pnj3KZ7xfXMBMFfjGunvuzWm2yARQMbZ3PHCCcvwYVBtc4vv8fVM3IOptwzBJfKlg3fhmWy5aZWLPeT0HVb++MQCvoHOsKFMfnj3wCDl0Dh3DMehGet3IHQE4B8Q+Po6ehkiKOK/OyNnHxTzXaRdvTtJRQ8BxxvvTJf6oWvMdl+KsTZy/H4VZlb4zAEcMt1IT642Epx6d5bMHC4WP+9wR+rg7EjEudk/DBUVjRfLXCusrNgI4dCemYVSqx83TUE0a6+SS3jWTjjU/WvG1sNVUfJ/1cA2TRjuTGAYAeq35exrTIzw8DsK2xvoMt9xjL47wozCKdY30Moy68o2BMQBvAMREgohiR0QVCEnLbzj4RsNUtBW4tdZe0h8nUr/ud+7ld/KIYtSWuuAQhZYC46LjuE8X9TrA9Ltek/L2Q8D7x42aaJCc+9jec9cs/fn9pQzuCpzg4LsRPyJ+uzUfjz2X+OA99DAKaeAMwDm2A8jH1D57MGU+7tFajxq3IJYA4WE7sOGBXjSgDrhH41hQHznA05DOo+M2i7HblnvEyc/AO5wO9fZyPknPDgGX+G1rvrACgp9zm5LFVnz0TjnP/tWnf9PH9h1rfsSP3WKNRHsfA/lVRIKPeDJqQ8mBM4BekDrfi+CINgKAgm2AHL8CKgUhRck7zNkDR7sOIXOHenBQP+2pY5wcjs69F83TUE0aieT83sf2SHbOfTUeq0JhCNzjWfqC5PgVrwb3l+/4AYH7PP1B1vx+z9/3q2VDZwC9Fe9oBJH4iAdPZ87IbIomoB3urZOn9ZcOLxXWXPdxH5QVt7tcRzDyRWNRXZ6GaeFpWEQ57qxK9PnbiMoTzaC35/dfO+uF0IGYr8ZbFDZA5PPF/D0IC37wFM9F6IoY/UT3BpFc4j9kzZe/Bep87xoJRd615NOwg6hTP8o8cgbgjYCLxhRRIXL36ANNJV1DIFgJCMBT3X3efR7L6e9fyu/+hs8ecBdGNSVdAC7vqxJfFE/D/kLx4NIiUe/3zY9w3T9/788dXFJ/f3GNoiPtO2N7tNjusT0aIpoAz3aMxP2tTx9KawmPjT+dLsKC96HM5y/CJaRbRbcLcsMjCsKrypMLhJgv/AkWLM665vULH24pBpYGLQnaLRUmgox4OtLh7f0PZBsAMTaLmHhb5luPo0dsmQ99vL3t8t6nJ27Nr1p8A2l87i+i3ga+g9gp52lA7RKfSSyEUz2NDN5X47G/BX2JBkv/96r4I9q/UmCyVZHK6j3tGvtueEtRNUY0AVSSzx4g8zEIde/FF8d/UWPwsSDvwQsKfkARA0lefiePXQ7SwrIYq6LF1FVrEMVtBbSDOnr7dPq+Sg4v4MQ5/WaMVDnn3fP43Cf5O/FqsH+9X7yP6Dsku4/tuyW+j/2pkQ9hhlnXp4VEnLuSRApJXa7HG4L4xpzQ9COq9sgyAOeg3hEx3gwqVoymuypJAYLMiMxAnLanodbFc9/3IWhz8gH1jGscFG+HVBEI/5hYAHVfVgVAFFYh2lhRf8l9nb3bQDoI5Ciol16A1Nsul/iz0uAY77d3yrEeg2kWQ7uivwbUbW3IduMHkKevrL88qnGxmnS3x5rPM93J8bX73qicC6JNDVmvqz631MbfFO1fVwDAjb+mE2MARAjXSUPAbtCwQQP9WQDjZAE3jimiFgo4dY4eVtFWAAOgYZERDLc9wM7hR51BaOqHVgBj8DUI1J628BvPddqlixcoOSxoO+cQfRzbxz4a9k45vaAF9n7QF+Nqze9tF9eF5NeqsHxPGuhd9cBt7f95Tz2wejWiXih/JbzV+KgElGbeb6mD2Eq4dzjzqLKP/F7b09C6j6i6DSP4qjwMTSMQopET2QXkO4pouiA8GgKMCNsFiMY8tjEs8xDrrD3A1gETiDZleoe3IRreGp/kEr8zfx8Z31xSjf1SzN+j6huDFoBoaWxthNcgW+sS3635ruLvKOIVmtmaeoHc14K4w1ccuA2yZn0vW9YxNSNJ/0J1vxPy5v8ul7ab2ovxGyLx3b8Dr1NyDSBbDMm6ZOm6ukLMIEzJtCFm4N3S98r1rUCIiUSnRURCI8A6G9fDQ25IHPghCNdWMXlJadAt9PI7uZM0/gRiu6ofHBf2BdHQiiiJrHpj98fbCfMF3qMyf+9stCPto+boy8N9jI/nXjTuRZLvMOLR7gpvl2DeUs1hqzvCJSn32Q1tB34ry0vXZUa/I11592/DGIpk/fU5GdmrofqqQHI2DdW/p5tn5bH8YRXCnobep/7OSOdeWabpOMeFFw2AuAAgZdvTUGsQQFD8CXjOx/I6HU7Sd+m0rLARwAQg/HHzNOyV+Ox7D7wX2h57cT0+a/KAN70CvL2fdDrQ1Jb4ArYxVsWOBNab2n8BobFpmtejrPn0zjglbfgHOimAtBjAlvTgP9b57b1Q+zVh+f1SqL+rKfS6xv3YMdvJNIA39OInQ2lDnG9aesGNGGYzOacCZ4SmM+oy4Ogzbe2XR/HEuw0uTkKqolq7H8HRehpaleyPEwHkYIxId6nnkzwNvX2dko72zAn5SRLfGfKwautwIucAH2AAB8XWQxMgOUPzdtnNMfij+or4c60mTtYEa5jAe8J+jflLNxqhsr4X6jt/4xGmpnY7P6/hwJY0AdlmPygwnKyF6n+kH89IIf242j8r8GjmYGiMu+8gd8njkmhGTWE4sCSJBfLO2NhUjGJInoa9DQT9IgrGvKl14hFh45h0XfIKiVXTXe4Tq4/UQVh/224P7I9/z8f4UeIDx7j+3j32GOM7cpH7+cAq1lWwwxI4eTTjzSLOw7agyH0i7PEc56ThQC9+qx9/vR+As1KmOAjrOltN89IviwHcaE7tfL5eKm1s7Ozc1+8tqf0RYXo+bhoA935aMNFQIJ8KlbtSkpoCzHsi/oYKO6/bCzpUfqIdhHMNCzSq6Clo1C+9o+lq6o6aytE9e8D1qHkaUlvq5bMHjEnpSdoD0j6yV3V/UMn7/WGJ7776sb48588Oqi7d5TrRc4/z3th6PsaHiQI7hgHjnOJwCiNeZLTgB/+Q0uBwK5/X+D1JFsNOWXt/0hWPRJWH+uizKlM7BJdeCXPHJHPmW6HyCaHcSTGCn1Mhx2Vak4aQTGl1fzV28rjxTrXCUmw6HJCzuLikMy+NpyGEF7cii8/w3LBsBW2o6oTzVmEriAyL2YOoEbD2gJ7FT4LnOkardgm6e/jkEsbf7PjoR0LHlsI9JD7IOGyJ72N7+oOWEncCOPiORVjzkfFEsXaC5zkJMP0d3+T42PZ/sTUSmu0KKcK6keaZBHfYKCWVLyu/l6f5vy6n5dWb9dqVEE7VXwvfbhsAgQI4vi99QTj0W8K3/yRcakyHJp5D81qzL4+h9GWpzBW9cFqcRpqAdkna9+Z4XTiCgxAgCNwTEoqLTjUul44Dqgio9js5yRnAoNtO+RxuH0Dnog7xvuokBxXOQXqe6a4r95838aXu70PmSBtfdz8vSEH0BFuFEbTrqQ/34/sH1Z92ksjpN4yowCCuu8fhKm6LvaMcaQ9j5DmgxTuDrJuK73uivhwQKof3w4wgDvyZVgb++FOIPuUGh60urcrmtZMmeUUCYVUYXpnK6oocXy/9rbBVf1nlfCGC8GB4fP71UJ56K1QuXDv/kkC8XAu7f1WFndXE4i+Isy5thNas8sQjm9ABJJ/ksosx+uOIASJzji2b8zan1bXZCrTvQET2yBK6JdEwmguU4xEZV0O2AghA87uG8Fu2Q5IQv4jjH/WDjmZwUB2937CRRISL7aT92ErmdZ/2e5yGYfvoO5yJYgxBsxMUavxWYc0XPurf+FvzXTDRH/SDe07O6wz4L3g/FLNY7ajGehi8EJPQNCBRLcKebskomN8TS1jTotXfVok3F2Yavz4zl2yEe/e2eKVtA9C7lvQijCa9+vWl+azZnNI0wHHJgiXdnhEDmJI2kOBBUFNlQDxUzshh9ytXVGackteXNsUUO2B0PQ2j1AVJqLPbCDzKMfKbfnGW7O3ydtpP9ms8c+0CYofBgWzc8zUNPp3Kd/idxLcHnby+5BwQOe3Cms85c1rgI5KeNr4A1ny1AiKMGhhSnnPm4xnbx5B6nHc0NJ4HNvSHcuiXc2gbZyDZa/MZ3b+oo5y1spXd7ZTpvR39zsrATuLlO+HlE9pvdHG61HpdbORUSLJ/RzOMS/IieknFV3VvQc+lGnOJB6sjivXw68WYFBWM+0dlpe60pj9nEcwRmiA+YzCIw2PQHWVMQ1qovrDDz5k94J4Gg7EfzIc9l2rMdbzH71GOgh2R9EEwQzSplLRzSsokyME5R7ek0aX9Rj6ohMSnnkxsg0/tnXIKTSdeQ/CwAW9NBxaDqle/y3WJ3zur4hrXotuibAgouGsMSr/o8okJuKjvAJ/mQBSWU8OBUG79cpYk703vNf7PY2F1o60BfFVM5c+E3xdC82QltI7V8+ySvnEqzXMRfliUSnJMeUn3wAdVIkoYGgDLcQnEWAtOzFepgEsenY5loh0kxpMGeOXc89mDUYhp2I0LkG3R8VZP+imOfwlNFaMZxZ6xbrTO5H03LuGHwC9RA6Cf4xGfHjyBUXcOvksOnIF3HOOj4scw2u6zP+7WfO87hzeSnXO3tUQNIPaH94XAYbAhf1wqYIivmwYM8kaHEeT5CfXltqZHyyJoTX4r6Yfy2vTL51qt5qlmtvdf69bZPE//kmSJNIVER9BqaCP+DudR6SBFZz189847indexEbblrEKJjCuPu4+NgYZOVA9OaupRQB4VGIaqioxqVOoF4hETdlFmTyTZCdx3p14lpQWkoXf/R73/dyNn9zrZ/KxPeXz7VZh09hNo6femsVTcA0GRhxnO/YPOPtZo8GW5RLfVXjfx2BeIp1788aKOyo+8PeDmj1LP/C+aLAkmE3nzfSVVpJUZkNl9kq4vO0aQNpo1Y+FrHVCz76knjirl5Z1oBnyfhT7nBTJbuq8k0eE4xqJ42NHfNyRnjQcTs54bZyTE1BUPIFLNMKNiqeh9wcw5tyvo0J/MOT9OX/C2+nXg8r5Dge4EfEjSnz32EPSR2t+JHnXKHvrO6j69btchCZ1d4nvY3w0L+65xOeZfrdRcNYStLwiGFbWZR64FZpJ+fOvv15+66t/vrTQbP6sxMAlDR7/kj68qG6Bhp+YnCN5haMKE8IJuSHQoSv6gXyr0AjwvaZDWQ9Px7vRxiXtEz94xA/01tPX86OqAoPemIZtT0N1LzJ42J6G3j9PAtvTPvekcp70u0t8X43XKOLmb0vSgwubwg7DD41aI354iVz1nyi89H7nLukdXwhkYxqz/kLojhdTxX3XCLyN4FI/kttSgCnDpQe5dFeBsizPiT0tGyh/d3MzOZW3SrLpLWHsE+Gj8rMs+JkS78V341iSRsMA3EZAOI94L2oEdHPs2vi57vN4Zzz+0saYYtcbseuG2wrQELh3VJ6GReWOLPN+Jedwg6TDh9wIXzmigfP4rGPTkVX9mT7s9EOfcw6Bc+5j+0gPcawPPZD8nXjVn7/gJUfBAET0cadhzZ7kV3S//KGv3S9NhVZlJ5RPijOdqMqfoF8VoRwaR75YjEXZEYgK+eyBe7QRMYf7LlF7Oah+GunknD7KLUyuEYoe03Bq1GIaDgmaLvGZmLb+PSC2nsdMdPhB/CSHa7wa3b+Or27Nd4Kfk1KPxF+U/wizLC7xhzGrAgzRtNGs7inCEVOlm5oT1DA8nzZQXlbdiiT1QNbCXI6FHZD3gxFQRnc5jEVBBADmHJG8M3sQv+9jvaJ6Y5c5AsN5IwwOjmkIk/R5X29oN8z83jjl3n5yDqQ6fdqR9EilyPDBB+A0zsn7C2Ln3Mf2jKPR+uL0cdQE+N2lfr9b7fDWJwqBGiU+sycwAsQsGEkUMFL5i5evhE/ensmnd8t7Ukv2Tin+Llxh2lDSnunvH7WcxrOHG5Wd0QSFIYBEBAiyUXh2sScfSONRV6PFYHwkQoeNRgKA+5J6YxrOCc4gja+fn9EV8OEAUdoS1DFM90Y5+ZiTOtLiGOlIs0LqTYicyDv0s6/GG1dG7xLfx+5P2sfAZ1msU9X+fttcHO6UC0yJXgzB39df4B5jUEJxYFYnlVc0SwQ30Dp5vaLgYXqYjoNreTJE9IvnzB2PO3kkFapFxd1W4B5tADqSjo8Jn7MCR/S6c/oOwscIRcA7tjvmsEVgAWK1mcAR1fkwn3XJQ79yjsSh33ze3nOQkvvjPn/vfQPz5rwj8fdb8/05x3fHA73Sl9QLd8cn4M0RpX7ELZ6lPt2p/Opbr+r6gTg1Aay1kCKrGfKdkHUWJFywpsVXrHO9Jd2lPMO5c0CKs0PzoAwFVjR7QEWXC0TZFarAwTaK9dweq21cbQUOKo9pSAeRtsR+IyLF+ASLggfIRSw94OKqJV4dJIdfvDq6v92SB8Jur8YT/pjE1xg0Enwc3e83+R5dvZ/2yy7pXaNzhymfv1+SvkzfPGmNRL/76yC4r0qDBqfcpkYfPC4VNgAceKNKHhEztbEar8JFuhHQC+sTH/DiIhMorviu2wqwDXBOkG3qwV69oBJIxXMdiaqLMUy0g0SnRWZI2/BxjzENFcVVZxHaMAie6oZ997kVNKQ/wJ6D75O75uhShxzko13d/XRU9VUVnyl5fcE9zhGKnA/bmu+VPyzcef5xqW0E9IcYq9Jpt7WaDIRb0DmNXlazyaeKePzui9xvzkY9uoG+IA5LIxZK0VZQa0XJgo0ABCMaMETkiIa7K8k5tl2M8B+vp3csnJtUk+SkJVVxdBiAx89v74hU7H9gCzL03CD6gXr0poMlT7Q273p/tDEvnnif9pY3atcu8but+dABHnpI+gVZ88nb1nydW9uKBg6ynUASXOcgshH4v16M9V3iH9bR7iEG4P1G4TQcTs4HPQcwcMBBW60dkJ08kgodxLche+rH6igMhNyn7ocFgF4ZqdQNfypGq2gfGgH9QEiwOByI/TPofnDgUC8O+oP8SRLfCcn7T6+MRfL6Rhh3xvZPsxpvEA10uFM2/Y+gIwf+0GivpnVYuD/EAPgQiQ8ji7b0CYCyIwSE8GflUw5w8GQC+VgvDiEiGQw5HIK6148UJZsK1SwBRePbjpVgRhIQQDBkIXcPsi35kgMYj1MAwEguae1ihP/01rN39mBNGpj1Q+vR/RDb2mngs2oG9CfJPfa0isTwodtHHzgfJHl62xFLG72/TjBot+CXG/OIeASezxueS/VPo7FvGNZ8oES/0QWPinQU8TsO1nsF3mHhfiADoBIkiItEwZy7JgAH4mU0giiJIwCpNIDk6F/ybuoQMnf4LvYBGNWToul6XQq89suRz72+but4Uj+AwMDe+yE20O8Av855d+P9O36Paw63t4B09P9BPvreQ/3td6/N4HITXioeYufcGYCP8eN1R+P19vXCq181BMYR9h16o++7JT4aoQ95nxfuT2QA3rC21bqQxPj0AzDm800jKDSD2WJsWpLnG8BySfKsksi/73l3OZQf17OzeCHOHszrgwBxr7BCvyieht5+1whgxLSfSDj0w6xpBsQpiGNUt1ZX1S8mFfQwz+e45ClxTorIFvuJcwidnFkWEM93zNnWFYhXf8hHXw8pHVbyxLeG97dDKLH9Dh+iGoO/iwX+ukZ7UMSjbvzrR+2dPlzTqsv2A9yJ8ASRb+k6Svw4i9I7ffq8cH9qBuCNhbhiiiBl7sAITjkVx2QHQrrPO+eObPG9/v6lbC+froVzRy7asdaiMr9onoa9/QBDoJ1ICvoBMuY6WkeQYDE5rDz3ciLMOhI/lsNQKg4FcdXlGWcQHYIqCh7xzNsLHDiH6Dl3SU8OqyQHZ0n+Trzq79/IhjoMGOYKfLvhDrEDd/pzUHA/NANwjhP5EdbI2JQdWasB2FQrSiCPGjvMiDl8Hw7tEpGaveieht4PW0U/KOyL9YPvf1ASVgGXGFFOa84lchgGRMkje4l+hEk0pBmAgNFVFGNTLJm/wJHfSI64jgfx7uj9dQbVa8133/zHxdajNcBsEAm4OwyBKbM9EPhm12pZU/F1fxhwPzQD6AWKNwYOBdBADBrEvD0NRCOI0mc4VmvvuE4eURWmEOsVOf+L6mlIP8QU+4M2Awt6g5y5EyDi8GFoxxu8FxlAJHgvxwlfj4xV8vYh6Tn3sf1RW/OpC/B2Wxo5sEbTQuLDeIF5r6qvWwNJz80AXBLQqNiwiDKoLjS2N2IOsfRQtVhr0K1q9Xts5eVRBztecE9D7wfHErcVuCyrFSjlY05/rjAJWN9xz8uhL8cpOUsDt+hvjMIInjnNGtkYX/4k/ObW/HZsvaKRji/9arPDmXKBJWQNZezIvwaCXy9sVDXTuSD8/RK/X/V4UjnPzQB6P+CIE5sTZwmQQtgKyBnj8FEQDQbQa7Wm8waRjAkUBVNH5CAdgm3Ax4LkIBL15Dee43yck/eH5+PclsfVHVyijyF2x6s4puceeBY3iXUG4Xg2KLhQLgd4xOEaFvjPuUt+t+YfFZ71nQGorfuS++yTA3SPmIPV2jizzx5kUSMoab7ViLXomX5zZirnnQ/Bu6fhfBFFt6Z4BXTQi+ZpSLtfxORx892av3SQNV+dbnhVAKHfeOUS3635Td2AqLdF6ibxC/8UX8uigP1eEz85knzgDMBbBRckuVXax0DR6hltBXBunz2ADTih8l73OdfPm7y8Th6VXzQApAQqNPV50TwNnxduR/2+91e3xHcNDoFy1NZ8LCrgeq8136dVXeL7kMXbc1RwHRoD8AbGkRDznJEFbhezB6hodOC8NAO8suZtzCbVTdcAaVBrD1wS2Df0HVZ5YSh6UT0NvR/GJe8QSjxzif80O+XQxkERGBLfhbgRvMb0SPyNfdGwMe5FI2uviu+2lqPuh6EzAG+wAw/1KHYSKlMu4os+774Kzm0FPnbz9wfVsUgWErXi/EX3NLTGjvAf72fv/1Gz5iPRYQA+pndrPhKf++A3ybHc22M3j+iP6mC239OhLDF7RMk5IODhQOXGr7mukCQAaVWMAAKclV6AZrAgD0PyQUfMcY1An7Z69HoasjqSju3ENIxWXV8F5zaPToc7q6PESXoSBBxuTvC+JRmbkdL/Pot0dNb8aNTbLST9mlvzbQcmCD6av0dV4gv+skZAcrvhdnhLcyQjkpxMHHAu+d1GgF8Bvw07Yg7MqJtr++wBiAqSTokdMAbFIZeux9RJW7wdOp2kQ0DANTCInXOGg5wTWw9kPSprPn0K43eJf5A1f1jz96rKoVOU/ElDeV22tvy0jpFhAL2t8Xls7VOo7idiTvTww9oL4R1ZxBxhJYjZiWlYrEqUUgXRe0zDbaELDKEzBowszjWf3va+X69d4vtqPPxDIHjiH3BvNo0xEv13cMEPYNatsfUDhgda8/PCmq9+Rq13a36zkFzRfaofNRhYGaj9jTTN3tUX3tWSju2/LlulMQBiAiLFSLQHAI9KguvGFFEFAkIL8Ig5BBmHIVBvCNNVx+KlvrfFYdPJO9+GAUQrNJLC/QlejJiGDs9+5/QZsHSJzxg/SvxO7s84zPtdB8or6Nhyzt2az9g+MvLonddrzY+T26NFM93wie2C9pOaKGhHMHwg3WpVWwMbaZW3XnsrD29r29/dGbSX5qipri4xnRE8HDGnaUQ/J/I3ySGJATNjz0IQhwTi9FtSeHmUbccL7mkIHJ8nuaT3/vSdcmaKfltSv9F/04U/SFnwtH7TRx3Gz/P9g9592JofF98QVRdJvyXyhwFA+BBTr4rv7Tmo/KO+LxqApGsasP6p8uv1Uv3XFUri9smaXBSUTAPQNkByUNQKWqYvRSs0FKCPYoocjY6IZ3QAHYSiSEvZkAxE4j4MYBQ8Df//9s7lSZKjvuNZ1c957+xKWr0lMJhAMiJsCIwNBq0D47Au9sHi4JtPdnBwBH+Bmr/AN0fobDvCASdzgAhjtCIwGAwYsCwelgSand3VPub96neVP9+s/k33tma0u7PdM12zmRHdVV2dVZX5y987f/lL+Q1Oa07DO8URwycxZ51Lpde5NKZBia/rGjdj3jbeXBpp0XP1UVt0NNv+MG++/lfpMzL/cyK/slgbJYtL5fBD2Ec7eKeuANUrURyvFUulrW83Gl6m+nH5J5bTz7npv6TyU1i0fwvwF+F0JRu0iezlUKOEMBliZZLfbElb563IQ9U5jkhDNS1Dl+xE512LNDw0p2EmYfoq5f4T9LjclT6hZGe2/n5//n44tx4qlce3HtKNGvfMtpfmJsgK+/WxrNObePElVCzDkXnzPZVQL0+jQVvRo0gloHAbV/wOx2tRaedfmEhbXWm65Rn43Rd6fmqvATzIj7orrCNXZ4HPFkNGLEwyB0kZXQGCyS42UJL8Qh4tA9U1m0UYzlMgdBtEssHzUfTUntc/qmVCpPsj0tD6bT6ZSZm/1xgIL0zi59Gbfwh+ormzw6eLmE1P8U1GNzjfRDteRqd6p4Lan5bd5lLTtWoZCPxjPAPYxEaYcdv/CXDeaMfTHwBLHyP32WcZxBmuaQbGxvOQd0/O5f3MRZ7ciMWeiEhDwMfwCIjDOQ3baGoyXXZ7msEWciizOTO/sqmeGfuYHDgPtyTrXcZ41U/bKcfW3S+g9Evlt/n748qtNxybX2dnIkn6DaCsY5NvMQSz7XPgzR8GvX5LscGXH2HGx7/i9yrB7P+K6Xljp1r/WaHodn+yQ2gNGWVrA8SvGz0DeJGLXxOtyDRz0eU0wnRI3U0A0wLxFrlW4AImgYY2H0WcXkWDnLU68xWcTKShtUGcNGuZrmTqVTZb0OG3CESSUgxBtYSYMgx0bv3hdCKLYYbsefVLtvygbZ9pAP1ZGqs/6n7Z8wxmgp/gmHnzM41QOGHefTFY1e2bXhMJ3oMaNSzx16i0R2+WwbIVAtg4FlYKc62V9Sdds/bjfR53y7NsHASE6FXu6LqZc8S2zddd6XP8+TDWAdOFbpEHP8ZRDEPjm7tiHTWbRvJI5/uRhj2bdNyRhsOAM0TVdZ1bZh5lihGibrKrq5dU/M4QWd8nX4ylWcYdi89YAK4i/Dm2mRVDM4Yg+NtnHK03G19eLw+n3i7E2nFJ8FMOy4O9+YJ67ookvpx7TcbhLXqwxtT4v4FBK2DJjwhK2511Dc5d5wXxvveQH14DUPd5oCDRfcM9snHN3WztueQysqjFCy7zl0IFpmECVepNoQnEALMojUCDmodiwyzpqiJJLAZgPoJJiDRUG+UVFwJLIomALK5Av9V2/ad6xgasX1w61mLjbgR+mMQ3hjuuxln/ddRHRC44mW0/HJtvJpUxMOvHuNo3iudKR4HSGHKf0lUR87LxV/nNvH6EpI/X0GmW0L1WE1e5XnZz9c+7q3X6ZuA5tBkH9T+qQR/PSDiikc6WSk/x3sVOUvo8L3swTZI/ABnn4DgP8H8RYMMI8luMhWH7eIag/V+E1CcVabg/Ypx4hEa0idgbPS/1FnggiSbfhq7rW/X6CL3/BK6OrtjzFYSl8TaJPw+bEvHP9iS+Tbvqzao3TtzI+p0xwz2g4jWmU+TNFwxV6Cde/WgbRtBASf8lwmuNsf+mCD52rdeaLt477xprMNsOakDzJW4B7neECPsaQPaq7H01bubu3VfBu2apdC3tdlEIokusb4KrxI/TgAUaIOauEAJmFSImufZ9BOMcc9/AUX6JiFQkGTKEFcFNXqShWiePutYeCPAdviXtpBlopE2zUV/GUfROlcMkvmkqGQyzuuP4Vl8Ns3WULa8x1FFjqKMYgdn25twbR1vG9cyexGdIvcSXEqP8ITfBAYJ3kmV0V0n/Swgv7P6pa2U30/zUgMSv3UXDbkusX4HlMD8YP5TNCJTLpdITtGu+3Sl/GtR7AMT4JO+bZxhgDFGJhmo5/W2fexdtPOaqWdPFGXVm3uzDIg1VRx+x3HEWcWQhfNrTCFpcENFvogl4jQAyEEOwiDWdD5aMTQxeufU8Y3/9a1Zf8/cGBxH/cIz+uCW+2fYm0g7bKcdi86Ufq4iIclrEz7oibvqwRyKz/6Unq7C0f8+uuTdg/o1ZV1+H0Lrfhve9lKHfkTp8kAZwC9x6AQPdGvEBj8AMniqVCt1udzvqREu8V8EGj9PQBdBEhF/l/AzHAkjDsyPGL+0l+brlsRP7w6AoolIRIYiYTjrS0CSwCNXOxQBM8traA/2faTVAnv+tPyJiFfud/cqYl53raPVs/t4i80ToYgB6nx3VDtW3e3T/qIq10/qg3pikV7/Nxjdvvo6qK41IZRxt8g8e8VfWP/mj/Py9fJiE7UZy3F3l2g64dwn5uwr+XSLofeMBN3X9vDvT+qB7c9+5V7uHNt01nKQREDgU4RWcxiApTTn3AAMym7jpj9HwczT4eTqxSODN06Bbhf/meMldv+ce+jSWWw3ZtTOfzqc5ihDMVzCdKlcNwDmGnIbqYIY4/aNUXhGIzR7sEtwtxpWtYctMHN2jgdBxsOia8h6o/WJ0Ok75tQ2sxiMWzJseZEpSvSIT6/4ZfOmozyiLSfyERqg/bZatSY3fgT7ElLew8bN+Zb6Pvoo/3KtRtmo8z1KLkZJS7zswrmvAchuI/hhWtpIWkle7UbzpSvUlYvebUztuF6dw94XMq68GjaTDt9UAhrtuIYS8ffur4E2VRqF2bdddhE2S7CCfsFG8ZqAAIs0cqKVFxhMNIcKFlaIdZEg0/OxJ/i1kVFFvhPSSOLomA00S6SQiDY34hAlS1NUeSUCRqsJb1C79I1IRUauePsNFz9H9qpNJ/P7aBUvIoetZvezug54z/Ny7+W3PszaKyNUf7UWoc28I81tOT/VLDE/FTBeDhb842V+avxe8keC41JHyNBdZ6q5CH5v0eonjqisUl11c2uqeq6+un3edL/yYLo+h3DPcauDOM7QYTaBCRGHxvJs6A/JN4ZX9ENxlMXbVCwzVWSaxVG0aZDzHSwksAk9zXTLQafZAZ/s5DXtZaecgJXWwxB6JIiwUA1/G5SvIyIFXcKLzRMYXx27vt9xJ/rcaM1Dw3vr2R73VdzYoZgJIIqvp1u5eNwaecG+ner7apY8Ifg/yFsFbbr3stwheV7M6HPy5jjkrAiPBOgqw84ISgk+/A2uVjf99sGS77FrXwKkWfrc6mnZyQf7eMZa71gCG21LrjwmBCS76njvX3nW7SPudGexnfATRElwNLhfN8/8sH+Ec/6fwjPzOHggZVaSWZkSRSSqLNCTq0kti+RBEc0ZQ/ia+Rk5IvQfbcyXR1UYNsI6ZNtAfrF71/XYMtk/PsOfY0eqP6qg26aPn62galY6CqR3NtBkrFfD+cZSepAf0qVbbKhOPVH3W47s6/y3zzg1wY4kj8/fFq21X3P1z11JEn0Uwj6NZtzxT8B9pYTD9M78BkdPzAr6CGaQK04XFJ+jsPJbzpyCZc9T7BC9mwVH6GDfkfvbAACli1/kkRRoeNMCSvCom2bNffcK336M6Dr5Pr1bKTEl8+SpE8Ju9yMf+arzMxs/0llG14lifo4kbeUw2OGr6/A1YMp599y2iJ5mzr/8cPNnDtFlFt+8g7Rs3GQ4zsY+rpfesAQw3lE5pfFVktrmLMPe3EUSPsroY5W4OpoCvoEuGr+IjDC6zB15I9WYPIvwDeNP87MG+1qzHTHyxTtM/X0zyT0Kk4UHAM4Z10H/juCb42EeEb5J90JsvRqDrqteH4zhaM/pnZn3ztj1SXqvyZNdHOPjSaxy1zmYJnXCt5FqXcCOv4e27hpOs8Rfyb/ZpZvQNu80Tjw0PLkLocLgYG6Cq2QOo/EFePtNxM8/hvsJHED1PW5lCTN/PeZWY5gX+N4F6m25M7t/0xWsE4rTqzH4EHTa3ZhFmmD2V3a1zDYbsI5VhyZxdzc/3sMQXYYuodw/Jrdf3cPUAkJ+ueobF+IrYO2kUSZDvxGnxZxD+arNQfwV5tjHb6bwN3jdxmm9i/97z/P2owDNyDeCwhl3oOTMY3rZmD1hi2EVFUB4yTn3OTzSDCMaYVlEOZwAegE1kGlSxZzV7kKu1BwYHSbusZL4C9Wowp6Htf6A6YhCqJUZgZfDcruXhKDLWR4q8YCCb3rz5sueHc+uZJyVH/fVuVUYL2z5lclLe/KjJnMsVrm3RR+HzajGOl8nEubnZ6dxE+LX/tKcZAwJX09cJlxODdw18fx2IfQlfAYygsMbsAQk+qzijngZlzhB6cwEAngVtPkI1EpWkmEl+7UH5xBo9ksHKWi/Oq7P9SMPevgfzUTZ7UOnNHqiOPpOuEZjEN++VvPaS+Nr3XtJ/u2fjW6Ri36knNpG7ouHAvYU6ExUuI/m34jT5LgYAIbrt78PMtpqu/Q69akH0uw/BBz/OH5PYy2PTAIY7X5NwoKANAEgXveEea7fcZulXfJhTxy6K3sYM2MZeWoT4Z0EYr0HrHJSR1uzzEwD8mLp6VC6KobvsXRX64yWjRRoqjXhmDmSzBzb/rtrGDPyNE/alwVQbTeJnvo/+/P2gxFfT8yTxe7Cni5pMzTLuMBo49KIGEn8ZBXWTDmHbKxFH4TILynauufYaHKBb6+G5+jyJZZIox7eFSMPSLsSODTANwMqJK53HazpXdZWPSyNICt1Ps7f7AvubPMmAVBgcTS1OUj/uapyt4ebsUE5jnVd78QRnyGUohjDVy49v9e7qJWOoPCzxW34VnkLZMolv2XSbnr31qUDElLPivfmMiubsMePj/+O4XnDdi3j2V5uu/jqEv4v+v8qfnfcj0G6CmMftzT8qTE9MAzigwR43AJxinGUftR5B0i+6ipJlzeAHeEjxBAB9yUUpJkLK1CL7c8CVqa4lyfhW8hdpaARhXm+TjcM5DeU3EPFbbD6nJ6oRHCTxpdVgznldVxJfdfqqvlo8+UXjAU7BhiPvzeeniL6NNnodASRv/jJHluOmlzSdh1OP+XvX+KsT9uYfFbImgI56/9jvQyPwaw+WcaAD7KKrVs+6JJlimuCDDNVi2i1doBFnUcU+DEmcmkhDkMzDVhxahK/ZA2kCi6Cm1wjY1U12kOXPN4k8Ll+BPd9s/GGJv4Wkl5PPIvb6DM13IxdfIn5gKp7F/hjRCubZLishfgqeEbzTuchIrOPP+E2b1XgLrr4hb/4/wO+epUKtr+Tkoq/WyEnSAKxNtxwHVCmyoLjoHxcWOq16vTJf71STNNlG4uBt9RGHBBVZpKHPatyLNNxPbz7xzG6w45KeKpKqavhBGoEYgEpmFhjLyK6NqrMiChUd9RGRq202f28SXzH6eZT46pYkPtDz3nwi9bBA/R4ZV4DsNr3SvD2Resqum2yccQvX624Bb/6b6rov+LFyW0aFJ8cGADGBL/P5BNowUqaA+jWLZlAmh+HjDNJ8xZU/yd+sN0h+n0El8Ch5nMYRduCo1hOrx9baUb4oGypxbJ1pkY40AVufP8MvMQTNKuh/PKO3lNtpBibh7SbVN6IXYSsjkffqw5LElMzGz7PEp1vqIip+CvErtZZS4hd+ADtYKRYb38Oi3Gq221cBRWsTOx+/VIJAMm++7s19mXgNYBjCA3jpOfBFBudtNGH2OkcCdedYF/8o5oBmER5lhOZBXmYL8KmRp4DfWpUIM+j7CoafP6m/DdtMI7DZgwoELwK1PRJ1nf565qCj7tPxTovqD340hafnW2y+gC4dOY8SvwcLurPvzYenZd584HYFnNkAVkty7qWFwuVSobCz124ztee6fy3l5xSWu8GNie7+RXAe7+t+pGHFVc7BsKdJovA7qM9nkyh+ns4uMvT4DiIfeszvTHue6J4d3DgbOOtAf+2BMhYoR1+2LLjMBtCqo8VBuicmAlHF7s/IW9gt1gFxs0BVBK+YfKn7O2KrHDU9qevZ1VwavN6bH8cRUh5vflJ4E0awTmK1V2CZZNVt829KVQAADAxJREFUvIZkkDdfjr029uMe+JQbbz5Dc6SSOw3gsF5eyASTkNhHGj7qmnhuXfW6K5C/MN1hkcESA79NlDbTiykrFVVSH2kIaSjSEE0hI5LD3jFJ10WsKiaWRL4idNnmGlRJapkEmX2b2UD83Od4dr/u84Tv62Y+BxG6zeNbBJ80AdXTf3koaqs+wKAXm685e/KLuPQGw42dn3hvPsztEgxgHWlxlbqNDZjAn/En+KHbT30xQXDqOloD119H0H0R3GdesYChtwBnr+wUi0+jAZ4pdYufweFzDsn4UTqv4KLzAKMIgmh6MbfFWJiIX/1QVEF2zH7r3PePyENheMRqPB2NsC3LsH7rujGYPNGD2i3C59hljG/C5HbTKH6Njq/GSUcSn+X27jfKrdfFm69u4shrPUsna31QcPn0F48Lp7+bzn1dxA8ziCuVR5hGXCi24z8CMQg1Lv4eZEDasu4TwEGBRQvgAQqDBGkecxpmQyrJrpIZAH3Jr399Db/tIz3tMQDV1R22tZoxhMyjoHuy56nehBYfEELfcNJp+X2MlE+bMIArtHcbPvgTUrOsdpPmqxD+5rNu4VIZb/5gbr0J7ddYm5Vhy1hfMVkP/xFM4AbYAYZMY/OV1svlh6CC2al26XdpKbsiuc8AlAUCb94HAimnoTZMlXad62IDbQRtnTHCnnjytgYffNSkBbvkuDYaj1LSbbE7zn/RtxVcpP/B8G3Nu72raIKt5VPqzT8YLLe/emp8ALfvalbDFmXUvKRw8XOVSjfudKY7bYc5kOwQ+IFN6GcMNG0of0EC0eAfSFmEFJHTINsIxQjqTt970vWMwO140u25l/fLG8FYwKvlzffTcgyLV+u16b28+czaJW9rcU4V7z4BO9vXCNXlnafWm39UeOYNj4/az0Pv+wrm4oNgD+ZBGazxOQ3ZBYUQY/dbEP0i0uOPQaizWMrPUG0ay1l5DNhDMd87Ih0KkMn/w3vzmekg3VzagMjfosnrJFJ4hZmetXK39VPyM+PNb3pvPhK/zqIc2faavQxlCAL3nQYw1H83GGnIfz6nIVoizKCFM7C7g5nA7EFCRFisBCWkP/fmAP+l0zAGTAmvGeix9z0zHYbtKH5LY5HEx5VJflNv5itvfpt4iBVAzsYZypsfrXciIkKjaK3CMlxWh8mzd195848K64C0Q5AD4TxMlNMQrSBmPnimwnnLTT+CWkli0+gTSH9mjdynQER2RFJOw7TMfZgLgQkMgfOefzIYSmzchQEoHFebYb4GS1iNCskrxDSsdTruTXnzz0LzjFP37+9Tb/5RAX3fawDDgAPhJHRUfKQhJkKLhAWFh7lOjvotIg0fxlewy6p9QozTBRiAjyXgnBmFfqQh15lJCPw1A+VdfSPmvY2Pyi5vfgTRO3ap9nnz4cmJJP4qiTgupXFh4xyhHsM75TClF8odQiBg6B0CqgZxowJEMyxBxqlURM1cBCmnu272w5gIZ5k1uMDfi6w9+BCEr2XKZ3i0puNzP4NwhyC652rivADLe/NJ86KdcrZwwf6Qy+TN73wbuG52XfsKGpiYM0k3XPJ3MIfei3V7KHcJgaAB3CHAaj0nElgmZ1L0NbzPICu+AKUrc+zh5pbAx239pg58Avnl/QNahOT3P/A5DXWv/gtF8PHA8BKfMwg5VeAO22CzP17kljnfIlTXx+bjgyHTTmHrumuvPM0YXAhOvZGgUEDGI4IRJI2+zOez3j/gCjem3TxhhJXZxhSrEpXRuEigkWYPuh/jFSgM6aMAW+YCCkRgAj2wa/6egJ2ILe7ZbDZKN3D1XcSnstopNf8bx97OEy13DZi10fsbzNaMfaecI6JDbm8LGsARhw7EBS/9hyhj577yPhaQrLtierVMjF2HWYNoCXNgh+mqB9EEtCuSYE2koaYW87t7Mm0/chHAgFtv/j5ieywyhrL0FpjUcehB4/F6QqyOVuOVi+5KteT2lkgU+SL3fDKD9ZHfHW48GAKMRyijhMDLSHkM1PjDLESC4kvEFjyEqYBJMP0cC0/OsYb/s7zvDFoCcQZRBc+2dk+myqnXCnrz98qtp62xIuXWYxus+Jv0f61ebv2iFMd73UbD59bDbmr8HKKveYYxyhEKzxqEQNAABqExgvO/ySLTpBq0vgp24zjsMoswtYuDkDnrXXwFSLpUvoIpiJ9YAj+5TbhBWmGqK7eRhgeBDgKHqw3O3w/m1itg28u510XiF9fKlco7nWq1+WKjsSuYHPS8cG30EADWoYwTAjWYwOtI9y9h+9/EDKiy/wHZiqq7rvABZg5IUhJd4P3EFSTPck7y01MTaUgItWNre6/ik0wz/h/6uVpwnW8CElbjNX4NM2w8xgaZrL7q/jOM8yUIPxD/OLHx3c8ODODdMBnnleg37unKdbdVvurSJyEG4f4FJKViCD7KizEHUmhCswspZkN+dk+WyNYHW4ZluH7+Xr6RFlrNEkd59n+KNkD0XvtbHDdmXesymlH7hV68BXVCOQEIBAZw/ED3MCfAyO9/8AAzBIORhuSkw9+VsHty+oc0TZGGBBwpyelk5zSkUwh0TZHGNzhi4rgfwhJWWF78LaT/Rurqy1Ro4snfRhNSbj2bv6d6KCcFgeADOH7IS1BqDYInABhBezDSEAciPgJNjTkIPyWbUcQqRBG/nz3Q/gf4C04+T8G7JX68R5ubaC5XaB9ptxQX4UitXbxcZJ3ViquH+XsAMmkFfAplEiBQG4g0RFKWzhNp2Gb2IHVVdk8mp6ErfI52sk1a8gFUaLZF2J89OJHmgzj7Eh9i3ybZBnvjuZvdYucVLJeNenuPPfNcC261i9QP8/cnMkq3f2nQAG4Po2OpUetFtkE0qNEu+gaaAXp/FY3gDPn4dokpRqKS05BIQ47TfGRzk6cg2xGJXwUYw9jayrv8G7Hp4UvKkaA9HWOal17lvZtM7rM/g7tZLaSX2dVs60bb5WJvvLEBLCcPHh/G5AQAk9rMGtSl2YMvQuTYCoUdN8Xag0TrENAA0rNdV/w8DrezCNePUG0aBjC2tQcifhiQTBYSbEbXOSLxlT/fkW+v8wqBOxstt8d0nmvhANgl0kk2vjSEUCYcAkEDmNABqkFEatpXM0KK2D25c91tlK+5+lTJdTVXvkQcgfY/gAn4HZEkoeUvUF5DeIMSlsAq7nL3ZBE79/AAhST4jDtdnulj9PkLG9/1bPxkideszLgUG99t/YKkHO9Qr9ZrN3VDyQEEGM9QcgIBP1ZfR+WHMgvtWTfLBnbVqfrUk/gFFsiBd0GaAdoAGoFfe/AQR609wFzwtoGYwnsWEX9P0ovglXGnSY49UqS5rU7syLFH/vyk9YMO/1Vd6zr2feu73hRwSa1nwrznC8KfEweBoAFM3JAc2iDRp3uhN2/+8odce/E6aw8ul6HZDtNuCZmLyH6LzwDCVXixVHBpAwQeuQLX5C+I+O0Zgc71PIrsef1QfbYFibDtfZ69VbSABpl3SLIZbZWi6G30grW2K7xTZgZzx7XWX6T+n0hhCCW3EDAkyG0H7veGv4yUxxPn1x4QeVPCbiCq0FXiQuVxiH426hafgUbn0OOfgvLLBOTjROxvHZhGKYtycDxGSqoZ7eHe+yWSfrvrWm9B2XtVFjqiBbRuurocfcqd3mQe/9TvmHO/4FVgAKdkpCHWCH9BjANuFjd9OS3PPMymHzPtdvSMZwSxe4o6lTiJtP4gRrKzeViUxnGibDsK4IEBuL0YBsDa+52i6/yaY6Ps5lff7+Y693v+/FOCJu/qRmAA7wJJvi/UoGT1AGdAaQ6mgJ1ehiHE5/mtY3PKFbEZIrZT9vX4X1uoKXa3g+4vx2OLPIjJVa7/NtcvZKaBHgmfCOW0QSAwgNM2oof0p9ZjDM886/MSuNnXMx8AxC7b3z3fO4IQgdAFkFACBAIEAgQCBAIEAgQCBAIEAgQCBAIEAgQCBAIEAgQCBAIEAgQCBAIEAgQCBAIEAgQCBAIEAgQCBAIEAgQCBAIEAgQCBAIEAgQCBAIEAgQCBAIEAgQCBAIEAgQCBAIEAgQCBAIEAgQCBAIEAgQCBAIEAgQCBAIEAgQCBAIEAgQCBAIEAgQCBAIEAgQCBAIEjg0C/w9k20NX5jtIHgAAAABJRU5ErkJggg==;" vertex="1" parent="1">
          <mxGeometry x="470" y="300" width="30" height="30" as="geometry" />
        </mxCell>
      </root>
    </mxGraphModel>
  </diagram>
  <diagram id="_OLyeWl1_P__EyjbDTe7" name="None模式">
    <mxGraphModel dx="1390" dy="980" grid="1" gridSize="10" guides="1" tooltips="1" connect="1" arrows="1" fold="1" page="1" pageScale="1" pageWidth="827" pageHeight="1169" math="0" shadow="0">
      <root>
        <mxCell id="0" />
        <mxCell id="1" parent="0" />
        <mxCell id="WM4bi3cMiJbUfFonbc3T-4" value="" style="rounded=0;whiteSpace=wrap;html=1;shadow=0;strokeColor=#E6E6E6;strokeWidth=2;fillColor=#FFFFFF;" parent="1" vertex="1">
          <mxGeometry x="14" y="260" width="800" height="420" as="geometry" />
        </mxCell>
        <mxCell id="Maxav0JjYn8ehn9TSSF7-1" value="Container" style="rounded=1;whiteSpace=wrap;html=1;strokeColor=#E6E6E6;fontSize=16;fontColor=#FFFFFF;fillColor=#6B8C97;strokeWidth=2;shadow=0;" parent="1" vertex="1">
          <mxGeometry x="37" y="310" width="120" height="50" as="geometry" />
        </mxCell>
        <mxCell id="WM4bi3cMiJbUfFonbc3T-2" value="Container" style="rounded=1;whiteSpace=wrap;html=1;strokeColor=#E6E6E6;fontSize=16;fontColor=#FFFFFF;fillColor=#8A8F74;strokeWidth=2;shadow=0;" parent="1" vertex="1">
          <mxGeometry x="177" y="310" width="120" height="50" as="geometry" />
        </mxCell>
        <mxCell id="WM4bi3cMiJbUfFonbc3T-3" value="Container" style="rounded=1;whiteSpace=wrap;html=1;strokeColor=#E6E6E6;fontSize=16;fontColor=#FFFFFF;fillColor=#A7852D;strokeWidth=2;shadow=0;" parent="1" vertex="1">
          <mxGeometry x="317" y="310" width="120" height="50" as="geometry" />
        </mxCell>
        <mxCell id="WM4bi3cMiJbUfFonbc3T-5" value="&lt;font color=&quot;#ffffff&quot; style=&quot;font-size: 16px;&quot;&gt;Host&lt;/font&gt;" style="rounded=1;whiteSpace=wrap;html=1;shadow=0;strokeColor=#E6E6E6;strokeWidth=2;fillColor=#A7852D;" parent="1" vertex="1">
          <mxGeometry x="37" y="480" width="430" height="100" as="geometry" />
        </mxCell>
        <mxCell id="WM4bi3cMiJbUfFonbc3T-6" value="docker0" style="rounded=1;whiteSpace=wrap;html=1;shadow=0;strokeColor=#E6E6E6;strokeWidth=2;fontSize=16;fontColor=#FFFFFF;fillColor=#6B8C97;" parent="1" vertex="1">
          <mxGeometry x="142" y="450" width="220" height="50" as="geometry" />
        </mxCell>
        <mxCell id="WM4bi3cMiJbUfFonbc3T-10" style="edgeStyle=orthogonalEdgeStyle;rounded=0;orthogonalLoop=1;jettySize=auto;html=1;entryX=0.483;entryY=0.969;entryDx=0;entryDy=0;entryPerimeter=0;fontSize=16;fontColor=#FFFFFF;endArrow=none;endFill=0;strokeColor=#8A8F74;" parent="1" source="WM4bi3cMiJbUfFonbc3T-7" target="WM4bi3cMiJbUfFonbc3T-8" edge="1">
          <mxGeometry relative="1" as="geometry">
            <Array as="points">
              <mxPoint x="251" y="630" />
              <mxPoint x="695" y="630" />
            </Array>
          </mxGeometry>
        </mxCell>
        <mxCell id="WM4bi3cMiJbUfFonbc3T-7" value="eth1" style="rounded=1;whiteSpace=wrap;html=1;shadow=0;strokeColor=#E6E6E6;strokeWidth=2;fontSize=16;fontColor=#FFFFFF;fillColor=#6B8C97;" parent="1" vertex="1">
          <mxGeometry x="204.5" y="560" width="92.5" height="40" as="geometry" />
        </mxCell>
        <mxCell id="WM4bi3cMiJbUfFonbc3T-8" value="Internet" style="ellipse;shape=cloud;whiteSpace=wrap;html=1;shadow=0;strokeColor=#E6E6E6;strokeWidth=2;fontSize=16;fontColor=#FFFFFF;fillColor=#6B8C97;" parent="1" vertex="1">
          <mxGeometry x="617" y="510" width="160" height="100" as="geometry" />
        </mxCell>
      </root>
    </mxGraphModel>
  </diagram>
  <diagram id="8UpUHopqhYQ1-hx1BxEj" name="Bridge模式">
    <mxGraphModel dx="1390" dy="980" grid="1" gridSize="10" guides="1" tooltips="1" connect="1" arrows="1" fold="1" page="1" pageScale="1" pageWidth="827" pageHeight="1169" math="0" shadow="0">
      <root>
        <mxCell id="0" />
        <mxCell id="1" parent="0" />
        <mxCell id="BlEsAyS3sMX9BD9HGW6v-1" value="" style="rounded=0;whiteSpace=wrap;html=1;" vertex="1" parent="1">
          <mxGeometry x="90" y="140" width="650" height="400" as="geometry" />
        </mxCell>
        <mxCell id="BlEsAyS3sMX9BD9HGW6v-2" value="" style="rounded=0;whiteSpace=wrap;html=1;" vertex="1" parent="1">
          <mxGeometry x="180" y="190" width="110" height="90" as="geometry" />
        </mxCell>
        <mxCell id="BlEsAyS3sMX9BD9HGW6v-3" value="eth0" style="rounded=0;whiteSpace=wrap;html=1;" vertex="1" parent="1">
          <mxGeometry x="220" y="260" width="30" height="20" as="geometry" />
        </mxCell>
        <mxCell id="BlEsAyS3sMX9BD9HGW6v-4" value="172.17.0.1" style="text;html=1;strokeColor=none;fillColor=none;align=center;verticalAlign=middle;whiteSpace=wrap;rounded=0;" vertex="1" parent="1">
          <mxGeometry x="205" y="230" width="60" height="30" as="geometry" />
        </mxCell>
      </root>
    </mxGraphModel>
  </diagram>
</mxfile>
